<svg xmlns="http://www.w3.org/2000/svg" xmlns:xlink="http://www.w3.org/1999/xlink" width="565" zoomAndPan="magnify" viewBox="0 0 423.75 423.749988" height="565" preserveAspectRatio="xMidYMid meet" version="1.0"><defs><clipPath id="edf834d29e"><path d="M 10.816406 76.121094 L 412.816406 76.121094 L 412.816406 358.871094 L 10.816406 358.871094 Z M 10.816406 76.121094 " clip-rule="nonzero"/></clipPath></defs><g clip-path="url(#edf834d29e)"><path fill="#0c5424" d="M 69.3125 103.917969 L 354.3125 103.917969 L 354.3125 284.109375 L 69.3125 284.109375 Z M 59.925781 293.496094 L 363.699219 293.496094 L 363.699219 94.527344 L 59.925781 94.527344 Z M 398.117188 349.421875 C 394.210938 349.457031 282.878906 349.480469 185.40625 349.480469 C 89.160156 349.480469 29.382812 349.457031 25.511719 349.421875 C 23.292969 349.402344 22.007812 345.394531 21.261719 343.84375 L 401.15625 343.84375 C 400.183594 345.511719 399.078125 349.410156 398.117188 349.421875 Z M 47.066406 311.996094 L 376.554688 311.996094 L 397.34375 334.453125 L 26.28125 334.453125 Z M 49.710938 91.101562 C 49.710938 88.019531 52.230469 85.511719 55.328125 85.511719 L 368.3125 85.511719 C 371.402344 85.511719 373.914062 88.019531 373.914062 91.101562 L 373.914062 302.511719 L 49.710938 302.511719 Z M 411.304688 335.71875 L 383.300781 305.460938 L 383.300781 91.101562 C 383.300781 82.839844 376.578125 76.121094 368.316406 76.121094 L 55.328125 76.121094 C 47.054688 76.121094 40.324219 82.839844 40.324219 91.101562 L 40.324219 305.460938 L 12.09375 335.960938 C 11.308594 336.8125 10.847656 337.996094 10.847656 339.15625 C 10.859375 344.984375 13.917969 358.695312 25.417969 358.808594 C 29.320312 358.847656 89.128906 358.871094 185.40625 358.871094 C 282.902344 358.871094 394.273438 358.847656 398.203125 358.8125 C 407.921875 358.71875 411.804688 343.449219 412.542969 340.65625 C 412.703125 340.183594 412.796875 339.675781 412.796875 339.148438 C 412.796875 337.792969 412.222656 336.574219 411.304688 335.71875 " fill-opacity="1" fill-rule="nonzero"/></g></svg>