<svg xmlns="http://www.w3.org/2000/svg" xmlns:xlink="http://www.w3.org/1999/xlink" width="565" zoomAndPan="magnify" viewBox="0 0 423.75 423.749988" height="565" preserveAspectRatio="xMidYMid meet" version="1.0"><defs><clipPath id="5db799b0e9"><path d="M 58.292969 42.375 L 365.792969 42.375 L 365.792969 349.875 L 58.292969 349.875 Z M 58.292969 42.375 " clip-rule="nonzero"/></clipPath></defs><g clip-path="url(#5db799b0e9)"><path fill="#0c5424" d="M 365.792969 115.90625 L 365.792969 62.429688 C 365.792969 61.773438 365.757812 61.117188 365.695312 60.464844 C 365.628906 59.8125 365.53125 59.164062 365.402344 58.519531 C 365.273438 57.875 365.113281 57.238281 364.925781 56.609375 C 364.734375 55.980469 364.511719 55.363281 364.261719 54.757812 C 364.007812 54.152344 363.726562 53.558594 363.417969 52.980469 C 363.109375 52.402344 362.769531 51.839844 362.40625 51.292969 C 362.039062 50.746094 361.648438 50.21875 361.234375 49.710938 C 360.816406 49.207031 360.375 48.71875 359.914062 48.253906 C 359.449219 47.789062 358.960938 47.351562 358.453125 46.933594 C 357.945312 46.515625 357.421875 46.125 356.875 45.761719 C 356.328125 45.398438 355.765625 45.058594 355.1875 44.75 C 354.609375 44.441406 354.015625 44.160156 353.410156 43.90625 C 352.800781 43.65625 352.183594 43.433594 351.558594 43.242188 C 350.929688 43.050781 350.292969 42.890625 349.648438 42.765625 C 349.003906 42.636719 348.355469 42.539062 347.703125 42.472656 C 347.050781 42.410156 346.394531 42.375 345.738281 42.375 L 78.347656 42.375 C 77.691406 42.375 77.035156 42.410156 76.382812 42.472656 C 75.726562 42.539062 75.078125 42.636719 74.4375 42.765625 C 73.792969 42.890625 73.15625 43.050781 72.527344 43.242188 C 71.898438 43.433594 71.28125 43.65625 70.675781 43.90625 C 70.070312 44.160156 69.476562 44.441406 68.898438 44.75 C 68.320312 45.058594 67.757812 45.398438 67.210938 45.761719 C 66.664062 46.125 66.136719 46.515625 65.628906 46.933594 C 65.121094 47.351562 64.636719 47.789062 64.171875 48.253906 C 63.707031 48.71875 63.269531 49.207031 62.851562 49.710938 C 62.433594 50.21875 62.042969 50.746094 61.679688 51.292969 C 61.3125 51.839844 60.976562 52.402344 60.667969 52.980469 C 60.355469 53.558594 60.078125 54.152344 59.824219 54.757812 C 59.574219 55.363281 59.351562 55.980469 59.160156 56.609375 C 58.96875 57.238281 58.808594 57.875 58.679688 58.519531 C 58.554688 59.164062 58.457031 59.8125 58.390625 60.464844 C 58.324219 61.117188 58.292969 61.773438 58.292969 62.429688 L 58.292969 115.90625 C 58.292969 116.5625 58.324219 117.21875 58.390625 117.871094 C 58.457031 118.527344 58.554688 119.175781 58.679688 119.820312 C 58.808594 120.460938 58.96875 121.097656 59.160156 121.726562 C 59.351562 122.355469 59.574219 122.972656 59.824219 123.578125 C 60.078125 124.183594 60.355469 124.777344 60.667969 125.355469 C 60.976562 125.9375 61.3125 126.5 61.679688 127.042969 C 62.042969 127.589844 62.433594 128.117188 62.851562 128.625 C 63.269531 129.132812 63.707031 129.617188 64.171875 130.082031 C 64.636719 130.546875 65.121094 130.988281 65.628906 131.402344 C 66.136719 131.820312 66.664062 132.210938 67.210938 132.574219 C 67.757812 132.941406 68.320312 133.277344 68.898438 133.585938 C 69.476562 133.898438 70.070312 134.179688 70.675781 134.429688 C 71.28125 134.679688 71.898438 134.902344 72.527344 135.09375 C 73.15625 135.285156 73.792969 135.445312 74.4375 135.574219 C 75.078125 135.703125 75.726562 135.796875 76.382812 135.863281 C 77.035156 135.929688 77.691406 135.960938 78.347656 135.960938 L 78.347656 149.332031 C 77.691406 149.332031 77.035156 149.363281 76.382812 149.429688 C 75.726562 149.496094 75.078125 149.59375 74.4375 149.71875 C 73.792969 149.847656 73.15625 150.007812 72.527344 150.199219 C 71.898438 150.390625 71.28125 150.613281 70.675781 150.863281 C 70.070312 151.117188 69.476562 151.394531 68.898438 151.707031 C 68.320312 152.015625 67.757812 152.351562 67.210938 152.71875 C 66.664062 153.082031 66.136719 153.472656 65.628906 153.890625 C 65.121094 154.308594 64.636719 154.746094 64.171875 155.210938 C 63.707031 155.675781 63.269531 156.160156 62.851562 156.667969 C 62.433594 157.175781 62.042969 157.703125 61.679688 158.25 C 61.3125 158.796875 60.976562 159.359375 60.667969 159.9375 C 60.355469 160.515625 60.078125 161.109375 59.824219 161.714844 C 59.574219 162.320312 59.351562 162.9375 59.160156 163.566406 C 58.96875 164.195312 58.808594 164.832031 58.679688 165.476562 C 58.554688 166.117188 58.457031 166.765625 58.390625 167.421875 C 58.324219 168.074219 58.292969 168.730469 58.292969 169.386719 L 58.292969 222.863281 C 58.292969 223.519531 58.324219 224.175781 58.390625 224.828125 C 58.457031 225.484375 58.554688 226.132812 58.679688 226.773438 C 58.808594 227.417969 58.96875 228.054688 59.160156 228.683594 C 59.351562 229.3125 59.574219 229.929688 59.824219 230.535156 C 60.078125 231.140625 60.355469 231.734375 60.667969 232.3125 C 60.976562 232.890625 61.3125 233.453125 61.679688 234 C 62.042969 234.546875 62.433594 235.074219 62.851562 235.582031 C 63.269531 236.089844 63.707031 236.574219 64.171875 237.039062 C 64.636719 237.503906 65.121094 237.941406 65.628906 238.359375 C 66.136719 238.777344 66.664062 239.167969 67.210938 239.53125 C 67.757812 239.898438 68.320312 240.234375 68.898438 240.542969 C 69.476562 240.855469 70.070312 241.132812 70.675781 241.386719 C 71.28125 241.636719 71.898438 241.859375 72.527344 242.050781 C 73.15625 242.242188 73.792969 242.402344 74.4375 242.53125 C 75.078125 242.65625 75.726562 242.753906 76.382812 242.820312 C 77.035156 242.886719 77.691406 242.917969 78.347656 242.917969 L 78.347656 256.289062 C 77.691406 256.289062 77.035156 256.320312 76.382812 256.386719 C 75.726562 256.453125 75.078125 256.546875 74.4375 256.675781 C 73.792969 256.804688 73.15625 256.964844 72.527344 257.15625 C 71.898438 257.347656 71.28125 257.570312 70.675781 257.820312 C 70.070312 258.070312 69.476562 258.351562 68.898438 258.664062 C 68.320312 258.972656 67.757812 259.308594 67.210938 259.675781 C 66.664062 260.039062 66.136719 260.429688 65.628906 260.847656 C 65.121094 261.261719 64.636719 261.703125 64.171875 262.167969 C 63.707031 262.632812 63.269531 263.117188 62.851562 263.625 C 62.433594 264.132812 62.042969 264.660156 61.679688 265.207031 C 61.3125 265.75 60.976562 266.3125 60.667969 266.894531 C 60.355469 267.472656 60.078125 268.066406 59.824219 268.671875 C 59.574219 269.277344 59.351562 269.894531 59.160156 270.523438 C 58.96875 271.152344 58.808594 271.789062 58.679688 272.429688 C 58.554688 273.074219 58.457031 273.722656 58.390625 274.378906 C 58.324219 275.03125 58.292969 275.6875 58.292969 276.34375 L 58.292969 329.820312 C 58.292969 330.476562 58.324219 331.132812 58.390625 331.785156 C 58.457031 332.4375 58.554688 333.085938 58.679688 333.730469 C 58.808594 334.375 58.96875 335.011719 59.160156 335.640625 C 59.351562 336.269531 59.574219 336.886719 59.824219 337.492188 C 60.078125 338.097656 60.355469 338.691406 60.667969 339.269531 C 60.976562 339.847656 61.3125 340.410156 61.679688 340.957031 C 62.042969 341.503906 62.433594 342.03125 62.851562 342.535156 C 63.269531 343.042969 63.707031 343.53125 64.171875 343.996094 C 64.636719 344.460938 65.121094 344.898438 65.628906 345.316406 C 66.136719 345.734375 66.664062 346.125 67.210938 346.488281 C 67.757812 346.851562 68.320312 347.191406 68.898438 347.5 C 69.476562 347.808594 70.070312 348.089844 70.675781 348.34375 C 71.28125 348.59375 71.898438 348.816406 72.527344 349.007812 C 73.15625 349.199219 73.792969 349.355469 74.4375 349.484375 C 75.078125 349.613281 75.726562 349.710938 76.382812 349.777344 C 77.035156 349.839844 77.691406 349.875 78.347656 349.875 L 345.738281 349.875 C 346.394531 349.875 347.050781 349.839844 347.703125 349.777344 C 348.355469 349.710938 349.003906 349.613281 349.648438 349.484375 C 350.292969 349.355469 350.929688 349.199219 351.558594 349.007812 C 352.183594 348.816406 352.800781 348.59375 353.410156 348.34375 C 354.015625 348.089844 354.609375 347.808594 355.1875 347.5 C 355.765625 347.191406 356.328125 346.851562 356.875 346.488281 C 357.421875 346.125 357.945312 345.734375 358.453125 345.316406 C 358.960938 344.898438 359.449219 344.460938 359.914062 343.996094 C 360.375 343.53125 360.816406 343.042969 361.234375 342.535156 C 361.648438 342.03125 362.039062 341.503906 362.40625 340.957031 C 362.769531 340.410156 363.109375 339.847656 363.417969 339.269531 C 363.726562 338.691406 364.007812 338.097656 364.261719 337.492188 C 364.511719 336.886719 364.734375 336.269531 364.925781 335.640625 C 365.113281 335.011719 365.273438 334.375 365.402344 333.730469 C 365.53125 333.085938 365.628906 332.4375 365.695312 331.785156 C 365.757812 331.132812 365.792969 330.476562 365.792969 329.820312 L 365.792969 276.34375 C 365.792969 275.6875 365.757812 275.03125 365.695312 274.378906 C 365.628906 273.722656 365.53125 273.074219 365.402344 272.429688 C 365.273438 271.789062 365.113281 271.152344 364.925781 270.523438 C 364.734375 269.894531 364.511719 269.277344 364.261719 268.671875 C 364.007812 268.066406 363.726562 267.472656 363.417969 266.894531 C 363.109375 266.3125 362.769531 265.75 362.40625 265.207031 C 362.039062 264.660156 361.648438 264.132812 361.234375 263.625 C 360.816406 263.117188 360.375 262.632812 359.914062 262.167969 C 359.449219 261.703125 358.960938 261.261719 358.453125 260.847656 C 357.945312 260.429688 357.421875 260.039062 356.875 259.675781 C 356.328125 259.308594 355.765625 258.972656 355.1875 258.664062 C 354.609375 258.351562 354.015625 258.070312 353.410156 257.820312 C 352.800781 257.570312 352.183594 257.347656 351.558594 257.15625 C 350.929688 256.964844 350.292969 256.804688 349.648438 256.675781 C 349.003906 256.546875 348.355469 256.453125 347.703125 256.386719 C 347.050781 256.320312 346.394531 256.289062 345.738281 256.289062 L 345.738281 242.917969 C 346.394531 242.917969 347.050781 242.886719 347.703125 242.820312 C 348.355469 242.753906 349.003906 242.65625 349.648438 242.53125 C 350.292969 242.402344 350.929688 242.242188 351.558594 242.050781 C 352.183594 241.859375 352.800781 241.636719 353.410156 241.386719 C 354.015625 241.132812 354.609375 240.855469 355.1875 240.542969 C 355.765625 240.234375 356.328125 239.898438 356.875 239.53125 C 357.421875 239.167969 357.945312 238.777344 358.453125 238.359375 C 358.960938 237.941406 359.449219 237.503906 359.914062 237.039062 C 360.375 236.574219 360.816406 236.089844 361.234375 235.582031 C 361.648438 235.074219 362.039062 234.546875 362.40625 234 C 362.769531 233.453125 363.109375 232.890625 363.417969 232.3125 C 363.726562 231.734375 364.007812 231.140625 364.261719 230.535156 C 364.511719 229.929688 364.734375 229.3125 364.925781 228.683594 C 365.113281 228.054688 365.273438 227.417969 365.402344 226.773438 C 365.53125 226.132812 365.628906 225.484375 365.695312 224.828125 C 365.757812 224.175781 365.792969 223.519531 365.792969 222.863281 L 365.792969 169.386719 C 365.792969 168.730469 365.757812 168.074219 365.695312 167.421875 C 365.628906 166.765625 365.53125 166.117188 365.402344 165.476562 C 365.273438 164.832031 365.113281 164.195312 364.925781 163.566406 C 364.734375 162.9375 364.511719 162.320312 364.261719 161.714844 C 364.007812 161.109375 363.726562 160.515625 363.417969 159.9375 C 363.109375 159.359375 362.769531 158.796875 362.40625 158.25 C 362.039062 157.703125 361.648438 157.175781 361.234375 156.667969 C 360.816406 156.160156 360.375 155.675781 359.914062 155.210938 C 359.449219 154.746094 358.960938 154.308594 358.453125 153.890625 C 357.945312 153.472656 357.421875 153.082031 356.875 152.71875 C 356.328125 152.351562 355.765625 152.015625 355.1875 151.707031 C 354.609375 151.394531 354.015625 151.117188 353.410156 150.863281 C 352.800781 150.613281 352.183594 150.390625 351.558594 150.199219 C 350.929688 150.007812 350.292969 149.847656 349.648438 149.71875 C 349.003906 149.59375 348.355469 149.496094 347.703125 149.429688 C 347.050781 149.363281 346.394531 149.332031 345.738281 149.332031 L 345.738281 135.960938 C 346.394531 135.960938 347.050781 135.929688 347.703125 135.863281 C 348.355469 135.796875 349.003906 135.703125 349.648438 135.574219 C 350.292969 135.445312 350.929688 135.285156 351.558594 135.09375 C 352.183594 134.902344 352.800781 134.679688 353.410156 134.429688 C 354.015625 134.179688 354.609375 133.898438 355.1875 133.585938 C 355.765625 133.277344 356.328125 132.941406 356.875 132.574219 C 357.421875 132.210938 357.945312 131.820312 358.453125 131.402344 C 358.960938 130.988281 359.449219 130.546875 359.914062 130.082031 C 360.375 129.617188 360.816406 129.132812 361.234375 128.625 C 361.648438 128.117188 362.039062 127.589844 362.40625 127.042969 C 362.769531 126.5 363.109375 125.9375 363.417969 125.355469 C 363.726562 124.777344 364.007812 124.183594 364.261719 123.578125 C 364.511719 122.972656 364.734375 122.355469 364.925781 121.726562 C 365.113281 121.097656 365.273438 120.460938 365.402344 119.820312 C 365.53125 119.175781 365.628906 118.527344 365.695312 117.871094 C 365.757812 117.21875 365.792969 116.5625 365.792969 115.90625 Z M 71.660156 115.90625 L 71.660156 62.429688 C 71.664062 61.992188 71.707031 61.554688 71.792969 61.125 C 71.878906 60.695312 72.003906 60.277344 72.171875 59.871094 C 72.339844 59.46875 72.546875 59.082031 72.789062 58.71875 C 73.035156 58.351562 73.3125 58.015625 73.621094 57.703125 C 73.933594 57.394531 74.269531 57.117188 74.632812 56.875 C 75 56.628906 75.382812 56.421875 75.789062 56.253906 C 76.195312 56.085938 76.613281 55.960938 77.042969 55.875 C 77.472656 55.789062 77.90625 55.746094 78.347656 55.746094 L 345.738281 55.746094 C 346.175781 55.746094 346.613281 55.789062 347.042969 55.875 C 347.472656 55.960938 347.890625 56.085938 348.296875 56.253906 C 348.699219 56.421875 349.085938 56.628906 349.449219 56.871094 C 349.816406 57.117188 350.152344 57.394531 350.464844 57.703125 C 350.773438 58.015625 351.050781 58.351562 351.292969 58.714844 C 351.539062 59.082031 351.746094 59.464844 351.914062 59.871094 C 352.082031 60.277344 352.207031 60.695312 352.292969 61.125 C 352.378906 61.554688 352.421875 61.992188 352.421875 62.429688 L 352.421875 115.90625 C 352.421875 116.347656 352.378906 116.78125 352.292969 117.210938 C 352.207031 117.640625 352.082031 118.058594 351.914062 118.464844 C 351.746094 118.871094 351.539062 119.253906 351.296875 119.621094 C 351.050781 119.984375 350.773438 120.324219 350.464844 120.632812 C 350.152344 120.945312 349.816406 121.21875 349.449219 121.464844 C 349.085938 121.707031 348.699219 121.914062 348.296875 122.082031 C 347.890625 122.25 347.472656 122.378906 347.042969 122.464844 C 346.613281 122.550781 346.175781 122.59375 345.738281 122.59375 L 78.347656 122.59375 C 77.90625 122.59375 77.472656 122.546875 77.042969 122.460938 C 76.613281 122.375 76.195312 122.25 75.789062 122.082031 C 75.382812 121.914062 75 121.707031 74.632812 121.464844 C 74.269531 121.21875 73.933594 120.941406 73.621094 120.632812 C 73.3125 120.320312 73.035156 119.984375 72.789062 119.621094 C 72.546875 119.253906 72.339844 118.871094 72.171875 118.464844 C 72.003906 118.058594 71.878906 117.640625 71.792969 117.210938 C 71.707031 116.78125 71.664062 116.347656 71.660156 115.90625 Z M 352.421875 276.34375 L 352.421875 329.820312 C 352.421875 330.257812 352.378906 330.695312 352.292969 331.125 C 352.207031 331.554688 352.082031 331.972656 351.914062 332.378906 C 351.746094 332.785156 351.539062 333.167969 351.296875 333.535156 C 351.050781 333.898438 350.773438 334.234375 350.464844 334.546875 C 350.152344 334.855469 349.816406 335.132812 349.449219 335.378906 C 349.085938 335.621094 348.699219 335.828125 348.296875 335.996094 C 347.890625 336.164062 347.472656 336.289062 347.042969 336.375 C 346.613281 336.460938 346.175781 336.503906 345.738281 336.503906 L 78.347656 336.503906 C 77.90625 336.503906 77.472656 336.460938 77.042969 336.375 C 76.613281 336.289062 76.195312 336.164062 75.789062 335.996094 C 75.382812 335.828125 75 335.621094 74.632812 335.375 C 74.269531 335.132812 73.933594 334.855469 73.621094 334.546875 C 73.3125 334.234375 73.035156 333.898438 72.789062 333.53125 C 72.546875 333.167969 72.339844 332.78125 72.171875 332.378906 C 72.003906 331.972656 71.878906 331.554688 71.792969 331.125 C 71.707031 330.695312 71.664062 330.257812 71.660156 329.820312 L 71.660156 276.34375 C 71.664062 275.902344 71.707031 275.46875 71.792969 275.039062 C 71.878906 274.609375 72.003906 274.191406 72.171875 273.785156 C 72.339844 273.378906 72.546875 272.996094 72.789062 272.628906 C 73.035156 272.265625 73.3125 271.925781 73.621094 271.617188 C 73.933594 271.308594 74.269531 271.03125 74.632812 270.785156 C 75 270.542969 75.382812 270.335938 75.789062 270.167969 C 76.195312 270 76.613281 269.871094 77.042969 269.789062 C 77.472656 269.703125 77.90625 269.65625 78.347656 269.65625 L 345.738281 269.65625 C 346.175781 269.65625 346.613281 269.699219 347.042969 269.785156 C 347.472656 269.871094 347.890625 270 348.296875 270.167969 C 348.699219 270.335938 349.085938 270.542969 349.449219 270.785156 C 349.816406 271.027344 350.152344 271.304688 350.464844 271.617188 C 350.773438 271.925781 351.050781 272.265625 351.296875 272.628906 C 351.539062 272.996094 351.746094 273.378906 351.914062 273.785156 C 352.082031 274.191406 352.207031 274.609375 352.292969 275.039062 C 352.378906 275.46875 352.421875 275.902344 352.421875 276.34375 Z M 332.367188 256.289062 L 91.714844 256.289062 L 91.714844 242.917969 L 332.367188 242.917969 Z M 352.421875 169.386719 L 352.421875 222.863281 C 352.421875 223.304688 352.378906 223.738281 352.292969 224.167969 C 352.207031 224.597656 352.082031 225.015625 351.914062 225.421875 C 351.746094 225.828125 351.539062 226.210938 351.296875 226.578125 C 351.050781 226.941406 350.773438 227.28125 350.464844 227.589844 C 350.152344 227.898438 349.816406 228.175781 349.449219 228.421875 C 349.085938 228.664062 348.699219 228.871094 348.296875 229.039062 C 347.890625 229.207031 347.472656 229.332031 347.042969 229.417969 C 346.613281 229.503906 346.175781 229.546875 345.738281 229.550781 L 78.347656 229.550781 C 77.90625 229.546875 77.472656 229.503906 77.042969 229.417969 C 76.613281 229.332031 76.195312 229.207031 75.789062 229.039062 C 75.382812 228.871094 75 228.664062 74.632812 228.421875 C 74.269531 228.175781 73.933594 227.898438 73.621094 227.589844 C 73.3125 227.277344 73.035156 226.941406 72.789062 226.578125 C 72.546875 226.210938 72.339844 225.828125 72.171875 225.421875 C 72.003906 225.015625 71.878906 224.597656 71.792969 224.167969 C 71.707031 223.738281 71.664062 223.304688 71.660156 222.863281 L 71.660156 169.386719 C 71.664062 168.945312 71.707031 168.511719 71.792969 168.082031 C 71.878906 167.652344 72.003906 167.234375 72.171875 166.828125 C 72.339844 166.421875 72.546875 166.039062 72.789062 165.671875 C 73.035156 165.308594 73.3125 164.972656 73.621094 164.660156 C 73.933594 164.351562 74.269531 164.074219 74.632812 163.828125 C 75 163.585938 75.382812 163.378906 75.789062 163.210938 C 76.195312 163.042969 76.613281 162.917969 77.042969 162.832031 C 77.472656 162.746094 77.90625 162.703125 78.347656 162.699219 L 345.738281 162.699219 C 346.175781 162.703125 346.613281 162.746094 347.042969 162.832031 C 347.472656 162.914062 347.890625 163.042969 348.296875 163.210938 C 348.699219 163.378906 349.085938 163.585938 349.449219 163.828125 C 349.816406 164.074219 350.152344 164.351562 350.464844 164.660156 C 350.773438 164.96875 351.050781 165.308594 351.296875 165.671875 C 351.539062 166.039062 351.746094 166.421875 351.914062 166.828125 C 352.082031 167.234375 352.207031 167.652344 352.292969 168.082031 C 352.378906 168.511719 352.421875 168.945312 352.421875 169.386719 Z M 332.367188 149.332031 L 91.714844 149.332031 L 91.714844 135.960938 L 332.367188 135.960938 Z M 332.367188 149.332031 " fill-opacity="1" fill-rule="nonzero"/></g><path fill="#0c5424" d="M 105.085938 109.222656 C 105.742188 109.222656 106.398438 109.191406 107.050781 109.125 C 107.707031 109.0625 108.355469 108.964844 109 108.835938 C 109.640625 108.710938 110.277344 108.550781 110.90625 108.359375 C 111.535156 108.167969 112.152344 107.949219 112.761719 107.695312 C 113.367188 107.445312 113.960938 107.164062 114.539062 106.855469 C 115.117188 106.546875 115.679688 106.207031 116.226562 105.84375 C 116.773438 105.476562 117.300781 105.085938 117.808594 104.671875 C 118.316406 104.253906 118.800781 103.8125 119.265625 103.347656 C 119.730469 102.882812 120.171875 102.398438 120.589844 101.890625 C 121.003906 101.382812 121.394531 100.855469 121.761719 100.308594 C 122.125 99.765625 122.460938 99.203125 122.773438 98.621094 C 123.082031 98.042969 123.363281 97.449219 123.613281 96.84375 C 123.863281 96.234375 124.085938 95.617188 124.277344 94.988281 C 124.46875 94.363281 124.625 93.726562 124.753906 93.082031 C 124.882812 92.4375 124.980469 91.789062 125.042969 91.132812 C 125.109375 90.480469 125.140625 89.824219 125.140625 89.167969 C 125.140625 88.511719 125.109375 87.855469 125.042969 87.203125 C 124.980469 86.550781 124.882812 85.898438 124.753906 85.257812 C 124.625 84.613281 124.46875 83.976562 124.277344 83.347656 C 124.085938 82.71875 123.863281 82.101562 123.613281 81.492188 C 123.363281 80.886719 123.082031 80.292969 122.773438 79.714844 C 122.460938 79.136719 122.125 78.574219 121.761719 78.027344 C 121.394531 77.480469 121.003906 76.953125 120.589844 76.445312 C 120.171875 75.9375 119.730469 75.453125 119.265625 74.988281 C 118.800781 74.523438 118.316406 74.082031 117.808594 73.667969 C 117.300781 73.25 116.773438 72.859375 116.226562 72.492188 C 115.679688 72.128906 115.117188 71.792969 114.539062 71.480469 C 113.960938 71.171875 113.367188 70.890625 112.761719 70.640625 C 112.152344 70.390625 111.535156 70.167969 110.90625 69.976562 C 110.277344 69.785156 109.640625 69.628906 109 69.5 C 108.355469 69.371094 107.707031 69.273438 107.050781 69.210938 C 106.398438 69.144531 105.742188 69.113281 105.085938 69.113281 C 104.429688 69.113281 103.773438 69.144531 103.121094 69.210938 C 102.464844 69.273438 101.816406 69.371094 101.171875 69.5 C 100.53125 69.628906 99.894531 69.785156 99.265625 69.976562 C 98.636719 70.167969 98.019531 70.390625 97.410156 70.640625 C 96.804688 70.890625 96.210938 71.171875 95.632812 71.480469 C 95.054688 71.792969 94.492188 72.128906 93.945312 72.492188 C 93.398438 72.859375 92.871094 73.25 92.363281 73.667969 C 91.855469 74.082031 91.371094 74.523438 90.90625 74.988281 C 90.441406 75.453125 90 75.9375 89.582031 76.445312 C 89.167969 76.953125 88.777344 77.480469 88.410156 78.027344 C 88.046875 78.574219 87.710938 79.136719 87.398438 79.714844 C 87.089844 80.292969 86.808594 80.886719 86.558594 81.492188 C 86.308594 82.101562 86.085938 82.71875 85.894531 83.347656 C 85.703125 83.976562 85.546875 84.613281 85.417969 85.257812 C 85.289062 85.898438 85.191406 86.550781 85.128906 87.203125 C 85.0625 87.855469 85.03125 88.511719 85.03125 89.167969 C 85.03125 89.824219 85.066406 90.480469 85.128906 91.132812 C 85.195312 91.785156 85.292969 92.433594 85.421875 93.078125 C 85.550781 93.722656 85.707031 94.359375 85.898438 94.988281 C 86.089844 95.617188 86.3125 96.234375 86.5625 96.839844 C 86.816406 97.445312 87.097656 98.039062 87.40625 98.617188 C 87.714844 99.195312 88.054688 99.757812 88.417969 100.304688 C 88.78125 100.851562 89.171875 101.378906 89.589844 101.886719 C 90.007812 102.390625 90.449219 102.878906 90.910156 103.34375 C 91.375 103.808594 91.863281 104.246094 92.371094 104.664062 C 92.878906 105.082031 93.402344 105.472656 93.949219 105.835938 C 94.496094 106.203125 95.058594 106.539062 95.636719 106.847656 C 96.214844 107.15625 96.808594 107.4375 97.414062 107.691406 C 98.019531 107.941406 98.636719 108.164062 99.265625 108.355469 C 99.894531 108.546875 100.53125 108.707031 101.175781 108.832031 C 101.820312 108.960938 102.46875 109.058594 103.121094 109.125 C 103.773438 109.1875 104.429688 109.222656 105.085938 109.222656 Z M 105.085938 82.484375 C 105.523438 82.484375 105.960938 82.527344 106.390625 82.613281 C 106.820312 82.699219 107.238281 82.824219 107.644531 82.992188 C 108.050781 83.160156 108.433594 83.367188 108.800781 83.609375 C 109.164062 83.855469 109.503906 84.132812 109.8125 84.441406 C 110.125 84.753906 110.398438 85.089844 110.644531 85.453125 C 110.886719 85.820312 111.09375 86.203125 111.261719 86.609375 C 111.429688 87.015625 111.554688 87.433594 111.640625 87.863281 C 111.726562 88.292969 111.769531 88.730469 111.769531 89.167969 C 111.769531 89.605469 111.726562 90.042969 111.640625 90.472656 C 111.554688 90.902344 111.429688 91.320312 111.261719 91.726562 C 111.09375 92.132812 110.886719 92.515625 110.644531 92.882812 C 110.398438 93.246094 110.125 93.585938 109.8125 93.894531 C 109.503906 94.207031 109.164062 94.484375 108.800781 94.726562 C 108.433594 94.96875 108.050781 95.175781 107.644531 95.34375 C 107.238281 95.511719 106.820312 95.640625 106.390625 95.726562 C 105.960938 95.808594 105.523438 95.851562 105.085938 95.851562 C 104.648438 95.851562 104.210938 95.808594 103.78125 95.726562 C 103.351562 95.640625 102.933594 95.511719 102.527344 95.34375 C 102.121094 95.175781 101.738281 94.96875 101.371094 94.726562 C 101.007812 94.484375 100.667969 94.207031 100.359375 93.894531 C 100.046875 93.585938 99.773438 93.246094 99.527344 92.882812 C 99.285156 92.515625 99.078125 92.132812 98.910156 91.726562 C 98.742188 91.320312 98.613281 90.902344 98.53125 90.472656 C 98.445312 90.042969 98.402344 89.605469 98.402344 89.167969 C 98.402344 88.730469 98.445312 88.296875 98.53125 87.863281 C 98.617188 87.433594 98.742188 87.015625 98.910156 86.613281 C 99.078125 86.207031 99.285156 85.820312 99.53125 85.457031 C 99.773438 85.089844 100.050781 84.753906 100.359375 84.445312 C 100.671875 84.132812 101.007812 83.855469 101.375 83.613281 C 101.738281 83.367188 102.125 83.164062 102.527344 82.996094 C 102.933594 82.828125 103.351562 82.699219 103.78125 82.613281 C 104.210938 82.527344 104.648438 82.484375 105.085938 82.484375 Z M 105.085938 82.484375 " fill-opacity="1" fill-rule="nonzero"/><path fill="#0c5424" d="M 165.25 109.222656 C 165.90625 109.222656 166.5625 109.191406 167.214844 109.125 C 167.867188 109.0625 168.515625 108.964844 169.160156 108.835938 C 169.804688 108.710938 170.441406 108.550781 171.070312 108.359375 C 171.699219 108.167969 172.316406 107.949219 172.921875 107.695312 C 173.53125 107.445312 174.125 107.164062 174.703125 106.855469 C 175.28125 106.546875 175.84375 106.207031 176.390625 105.84375 C 176.9375 105.476562 177.464844 105.085938 177.972656 104.671875 C 178.480469 104.253906 178.964844 103.8125 179.429688 103.347656 C 179.894531 102.882812 180.335938 102.398438 180.75 101.890625 C 181.167969 101.382812 181.558594 100.855469 181.921875 100.308594 C 182.289062 99.765625 182.625 99.203125 182.933594 98.621094 C 183.246094 98.042969 183.523438 97.449219 183.777344 96.84375 C 184.027344 96.234375 184.25 95.617188 184.441406 94.988281 C 184.628906 94.363281 184.789062 93.726562 184.917969 93.082031 C 185.046875 92.4375 185.140625 91.789062 185.207031 91.132812 C 185.269531 90.480469 185.304688 89.824219 185.304688 89.167969 C 185.304688 88.511719 185.269531 87.855469 185.207031 87.203125 C 185.140625 86.550781 185.046875 85.898438 184.917969 85.257812 C 184.789062 84.613281 184.628906 83.976562 184.441406 83.347656 C 184.25 82.71875 184.027344 82.101562 183.777344 81.492188 C 183.523438 80.886719 183.246094 80.292969 182.933594 79.714844 C 182.625 79.136719 182.289062 78.574219 181.921875 78.027344 C 181.558594 77.480469 181.167969 76.953125 180.75 76.445312 C 180.335938 75.9375 179.894531 75.453125 179.429688 74.988281 C 178.964844 74.523438 178.480469 74.082031 177.972656 73.667969 C 177.464844 73.25 176.9375 72.859375 176.390625 72.492188 C 175.84375 72.128906 175.28125 71.792969 174.703125 71.480469 C 174.125 71.171875 173.53125 70.890625 172.921875 70.640625 C 172.316406 70.390625 171.699219 70.167969 171.070312 69.976562 C 170.441406 69.785156 169.804688 69.628906 169.160156 69.5 C 168.515625 69.371094 167.867188 69.273438 167.214844 69.210938 C 166.5625 69.144531 165.90625 69.113281 165.25 69.113281 C 164.59375 69.113281 163.9375 69.144531 163.285156 69.210938 C 162.628906 69.273438 161.980469 69.371094 161.335938 69.5 C 160.691406 69.628906 160.054688 69.785156 159.425781 69.976562 C 158.800781 70.167969 158.179688 70.390625 157.574219 70.640625 C 156.96875 70.890625 156.375 71.171875 155.796875 71.480469 C 155.214844 71.792969 154.652344 72.128906 154.105469 72.492188 C 153.5625 72.859375 153.035156 73.25 152.527344 73.667969 C 152.019531 74.082031 151.53125 74.523438 151.070312 74.988281 C 150.605469 75.453125 150.164062 75.9375 149.746094 76.445312 C 149.328125 76.953125 148.9375 77.480469 148.574219 78.027344 C 148.210938 78.574219 147.871094 79.136719 147.5625 79.714844 C 147.253906 80.292969 146.972656 80.886719 146.722656 81.492188 C 146.46875 82.101562 146.25 82.71875 146.058594 83.347656 C 145.867188 83.976562 145.707031 84.613281 145.578125 85.257812 C 145.453125 85.898438 145.355469 86.550781 145.292969 87.203125 C 145.226562 87.855469 145.195312 88.511719 145.195312 89.167969 C 145.195312 89.824219 145.226562 90.480469 145.292969 91.132812 C 145.359375 91.785156 145.453125 92.433594 145.582031 93.078125 C 145.710938 93.722656 145.871094 94.359375 146.0625 94.988281 C 146.253906 95.617188 146.476562 96.234375 146.726562 96.839844 C 146.980469 97.445312 147.257812 98.039062 147.570312 98.617188 C 147.878906 99.195312 148.214844 99.757812 148.582031 100.304688 C 148.945312 100.851562 149.335938 101.378906 149.753906 101.886719 C 150.171875 102.390625 150.609375 102.878906 151.074219 103.34375 C 151.539062 103.808594 152.023438 104.246094 152.53125 104.664062 C 153.039062 105.082031 153.566406 105.472656 154.113281 105.835938 C 154.660156 106.203125 155.222656 106.539062 155.800781 106.847656 C 156.378906 107.15625 156.972656 107.4375 157.578125 107.691406 C 158.183594 107.941406 158.800781 108.164062 159.429688 108.355469 C 160.058594 108.546875 160.695312 108.707031 161.339844 108.832031 C 161.980469 108.960938 162.628906 109.058594 163.285156 109.125 C 163.9375 109.1875 164.59375 109.222656 165.25 109.222656 Z M 165.25 82.484375 C 165.6875 82.484375 166.121094 82.527344 166.554688 82.613281 C 166.984375 82.699219 167.402344 82.824219 167.808594 82.992188 C 168.210938 83.160156 168.597656 83.367188 168.960938 83.609375 C 169.328125 83.855469 169.664062 84.132812 169.976562 84.441406 C 170.285156 84.753906 170.5625 85.089844 170.808594 85.453125 C 171.050781 85.820312 171.257812 86.203125 171.425781 86.609375 C 171.59375 87.015625 171.71875 87.433594 171.804688 87.863281 C 171.890625 88.292969 171.933594 88.730469 171.933594 89.167969 C 171.933594 89.605469 171.890625 90.042969 171.804688 90.472656 C 171.71875 90.902344 171.59375 91.320312 171.425781 91.726562 C 171.257812 92.132812 171.050781 92.515625 170.808594 92.882812 C 170.5625 93.246094 170.285156 93.585938 169.976562 93.894531 C 169.664062 94.207031 169.328125 94.484375 168.960938 94.726562 C 168.597656 94.96875 168.210938 95.175781 167.808594 95.34375 C 167.402344 95.511719 166.984375 95.640625 166.554688 95.726562 C 166.121094 95.808594 165.6875 95.851562 165.25 95.851562 C 164.808594 95.851562 164.375 95.808594 163.945312 95.726562 C 163.515625 95.640625 163.097656 95.511719 162.691406 95.34375 C 162.285156 95.175781 161.898438 94.96875 161.535156 94.726562 C 161.171875 94.484375 160.832031 94.207031 160.523438 93.894531 C 160.210938 93.585938 159.933594 93.246094 159.691406 92.882812 C 159.445312 92.515625 159.242188 92.132812 159.074219 91.726562 C 158.90625 91.320312 158.777344 90.902344 158.691406 90.472656 C 158.605469 90.042969 158.5625 89.605469 158.5625 89.167969 C 158.566406 88.730469 158.609375 88.296875 158.695312 87.863281 C 158.78125 87.433594 158.90625 87.015625 159.074219 86.609375 C 159.242188 86.207031 159.449219 85.820312 159.691406 85.457031 C 159.9375 85.089844 160.214844 84.753906 160.523438 84.445312 C 160.835938 84.132812 161.171875 83.855469 161.535156 83.613281 C 161.902344 83.367188 162.285156 83.164062 162.691406 82.996094 C 163.097656 82.824219 163.515625 82.699219 163.945312 82.613281 C 164.375 82.527344 164.808594 82.484375 165.25 82.484375 Z M 165.25 82.484375 " fill-opacity="1" fill-rule="nonzero"/><path fill="#0c5424" d="M 238.78125 95.851562 L 332.367188 95.851562 C 332.808594 95.851562 333.242188 95.808594 333.671875 95.726562 C 334.101562 95.640625 334.519531 95.511719 334.925781 95.34375 C 335.332031 95.175781 335.71875 94.96875 336.082031 94.726562 C 336.449219 94.484375 336.785156 94.207031 337.09375 93.894531 C 337.40625 93.585938 337.683594 93.246094 337.925781 92.882812 C 338.171875 92.515625 338.375 92.132812 338.542969 91.726562 C 338.710938 91.320312 338.839844 90.902344 338.925781 90.472656 C 339.011719 90.042969 339.054688 89.605469 339.054688 89.167969 C 339.054688 88.730469 339.011719 88.292969 338.925781 87.863281 C 338.839844 87.433594 338.710938 87.015625 338.542969 86.609375 C 338.375 86.203125 338.171875 85.820312 337.925781 85.453125 C 337.683594 85.089844 337.40625 84.753906 337.09375 84.441406 C 336.785156 84.132812 336.449219 83.855469 336.082031 83.609375 C 335.71875 83.367188 335.332031 83.160156 334.925781 82.992188 C 334.519531 82.824219 334.101562 82.699219 333.671875 82.613281 C 333.242188 82.527344 332.808594 82.484375 332.367188 82.484375 L 238.78125 82.484375 C 238.34375 82.484375 237.90625 82.527344 237.476562 82.613281 C 237.046875 82.699219 236.628906 82.824219 236.222656 82.992188 C 235.816406 83.160156 235.433594 83.367188 235.066406 83.609375 C 234.703125 83.855469 234.363281 84.132812 234.054688 84.441406 C 233.746094 84.753906 233.46875 85.089844 233.222656 85.453125 C 232.980469 85.820312 232.773438 86.203125 232.605469 86.609375 C 232.4375 87.015625 232.3125 87.433594 232.226562 87.863281 C 232.140625 88.292969 232.097656 88.730469 232.097656 89.167969 C 232.097656 89.605469 232.140625 90.042969 232.226562 90.472656 C 232.3125 90.902344 232.4375 91.320312 232.605469 91.726562 C 232.773438 92.132812 232.980469 92.515625 233.222656 92.882812 C 233.46875 93.246094 233.746094 93.585938 234.054688 93.894531 C 234.363281 94.207031 234.703125 94.484375 235.066406 94.726562 C 235.433594 94.96875 235.816406 95.175781 236.222656 95.34375 C 236.628906 95.511719 237.046875 95.640625 237.476562 95.726562 C 237.90625 95.808594 238.34375 95.851562 238.78125 95.851562 Z M 238.78125 95.851562 " fill-opacity="1" fill-rule="nonzero"/><path fill="#0c5424" d="M 105.085938 176.070312 C 104.429688 176.070312 103.773438 176.101562 103.121094 176.167969 C 102.464844 176.230469 101.816406 176.328125 101.171875 176.457031 C 100.53125 176.585938 99.894531 176.742188 99.265625 176.933594 C 98.636719 177.125 98.019531 177.347656 97.410156 177.597656 C 96.804688 177.847656 96.210938 178.128906 95.632812 178.4375 C 95.054688 178.75 94.492188 179.085938 93.945312 179.449219 C 93.398438 179.816406 92.871094 180.207031 92.363281 180.621094 C 91.855469 181.039062 91.371094 181.480469 90.90625 181.945312 C 90.441406 182.410156 90 182.894531 89.582031 183.402344 C 89.167969 183.910156 88.777344 184.4375 88.410156 184.984375 C 88.046875 185.53125 87.710938 186.09375 87.398438 186.671875 C 87.089844 187.25 86.808594 187.84375 86.558594 188.449219 C 86.308594 189.058594 86.085938 189.675781 85.894531 190.304688 C 85.703125 190.933594 85.546875 191.570312 85.417969 192.210938 C 85.289062 192.855469 85.191406 193.503906 85.128906 194.160156 C 85.0625 194.8125 85.03125 195.46875 85.03125 196.125 C 85.03125 196.78125 85.0625 197.4375 85.128906 198.089844 C 85.191406 198.746094 85.289062 199.394531 85.417969 200.039062 C 85.546875 200.679688 85.703125 201.316406 85.894531 201.945312 C 86.085938 202.574219 86.308594 203.191406 86.558594 203.800781 C 86.808594 204.40625 87.089844 205 87.398438 205.578125 C 87.710938 206.15625 88.046875 206.71875 88.410156 207.265625 C 88.777344 207.8125 89.167969 208.339844 89.582031 208.847656 C 90 209.355469 90.441406 209.839844 90.90625 210.304688 C 91.371094 210.769531 91.855469 211.210938 92.363281 211.628906 C 92.871094 212.042969 93.398438 212.433594 93.945312 212.800781 C 94.492188 213.164062 95.054688 213.5 95.632812 213.8125 C 96.210938 214.121094 96.804688 214.402344 97.410156 214.652344 C 98.019531 214.902344 98.636719 215.125 99.265625 215.316406 C 99.894531 215.507812 100.53125 215.664062 101.171875 215.792969 C 101.816406 215.921875 102.464844 216.019531 103.121094 216.082031 C 103.773438 216.148438 104.429688 216.179688 105.085938 216.179688 C 105.742188 216.179688 106.398438 216.148438 107.050781 216.082031 C 107.707031 216.019531 108.355469 215.921875 109 215.792969 C 109.640625 215.664062 110.277344 215.507812 110.90625 215.316406 C 111.535156 215.125 112.152344 214.902344 112.761719 214.652344 C 113.367188 214.402344 113.960938 214.121094 114.539062 213.8125 C 115.117188 213.5 115.679688 213.164062 116.226562 212.800781 C 116.773438 212.433594 117.300781 212.042969 117.808594 211.628906 C 118.316406 211.210938 118.800781 210.769531 119.265625 210.304688 C 119.730469 209.839844 120.171875 209.355469 120.589844 208.847656 C 121.003906 208.339844 121.394531 207.8125 121.761719 207.265625 C 122.125 206.71875 122.460938 206.15625 122.773438 205.578125 C 123.082031 205 123.363281 204.40625 123.613281 203.800781 C 123.863281 203.191406 124.085938 202.574219 124.277344 201.945312 C 124.46875 201.316406 124.625 200.679688 124.753906 200.039062 C 124.882812 199.394531 124.980469 198.746094 125.042969 198.089844 C 125.109375 197.4375 125.140625 196.78125 125.140625 196.125 C 125.140625 195.46875 125.105469 194.8125 125.042969 194.160156 C 124.976562 193.507812 124.878906 192.859375 124.75 192.214844 C 124.621094 191.570312 124.460938 190.933594 124.273438 190.304688 C 124.082031 189.679688 123.859375 189.058594 123.609375 188.453125 C 123.355469 187.847656 123.074219 187.253906 122.765625 186.675781 C 122.457031 186.097656 122.117188 185.535156 121.753906 184.988281 C 121.390625 184.441406 120.996094 183.914062 120.582031 183.410156 C 120.164062 182.902344 119.722656 182.414062 119.261719 181.949219 C 118.796875 181.488281 118.308594 181.046875 117.800781 180.628906 C 117.292969 180.210938 116.769531 179.820312 116.222656 179.457031 C 115.675781 179.09375 115.113281 178.753906 114.535156 178.445312 C 113.957031 178.136719 113.363281 177.855469 112.757812 177.601562 C 112.152344 177.351562 111.53125 177.128906 110.90625 176.9375 C 110.277344 176.746094 109.640625 176.589844 108.996094 176.460938 C 108.351562 176.332031 107.703125 176.234375 107.050781 176.167969 C 106.398438 176.105469 105.742188 176.070312 105.085938 176.070312 Z M 105.085938 202.808594 C 104.648438 202.808594 104.210938 202.765625 103.78125 202.679688 C 103.351562 202.59375 102.933594 202.46875 102.527344 202.300781 C 102.121094 202.132812 101.738281 201.925781 101.371094 201.683594 C 101.007812 201.4375 100.667969 201.164062 100.359375 200.851562 C 100.046875 200.542969 99.773438 200.203125 99.527344 199.839844 C 99.285156 199.472656 99.078125 199.089844 98.910156 198.683594 C 98.742188 198.277344 98.613281 197.859375 98.53125 197.429688 C 98.445312 197 98.402344 196.5625 98.402344 196.125 C 98.402344 195.6875 98.445312 195.25 98.53125 194.820312 C 98.613281 194.390625 98.742188 193.972656 98.910156 193.566406 C 99.078125 193.160156 99.285156 192.777344 99.527344 192.410156 C 99.773438 192.046875 100.046875 191.707031 100.359375 191.398438 C 100.667969 191.085938 101.007812 190.8125 101.371094 190.566406 C 101.738281 190.324219 102.121094 190.117188 102.527344 189.949219 C 102.933594 189.78125 103.351562 189.652344 103.78125 189.570312 C 104.210938 189.484375 104.648438 189.441406 105.085938 189.441406 C 105.523438 189.441406 105.960938 189.484375 106.390625 189.570312 C 106.820312 189.652344 107.238281 189.78125 107.644531 189.949219 C 108.050781 190.117188 108.433594 190.324219 108.800781 190.566406 C 109.164062 190.8125 109.503906 191.085938 109.8125 191.398438 C 110.125 191.707031 110.398438 192.046875 110.644531 192.410156 C 110.886719 192.777344 111.09375 193.160156 111.261719 193.566406 C 111.429688 193.972656 111.554688 194.390625 111.640625 194.820312 C 111.726562 195.25 111.769531 195.6875 111.769531 196.125 C 111.769531 196.5625 111.726562 197 111.640625 197.429688 C 111.554688 197.859375 111.429688 198.277344 111.261719 198.683594 C 111.09375 199.085938 110.886719 199.472656 110.640625 199.835938 C 110.398438 200.203125 110.121094 200.539062 109.8125 200.851562 C 109.5 201.160156 109.164062 201.4375 108.796875 201.679688 C 108.433594 201.925781 108.046875 202.132812 107.644531 202.300781 C 107.238281 202.46875 106.820312 202.59375 106.390625 202.679688 C 105.960938 202.765625 105.523438 202.808594 105.085938 202.808594 Z M 105.085938 202.808594 " fill-opacity="1" fill-rule="nonzero"/><path fill="#0c5424" d="M 165.25 176.070312 C 164.59375 176.070312 163.9375 176.101562 163.285156 176.167969 C 162.628906 176.230469 161.980469 176.328125 161.335938 176.457031 C 160.691406 176.585938 160.054688 176.742188 159.425781 176.933594 C 158.800781 177.125 158.179688 177.347656 157.574219 177.597656 C 156.96875 177.847656 156.375 178.128906 155.796875 178.4375 C 155.214844 178.75 154.652344 179.085938 154.105469 179.449219 C 153.5625 179.816406 153.035156 180.207031 152.527344 180.621094 C 152.019531 181.039062 151.53125 181.480469 151.070312 181.945312 C 150.605469 182.410156 150.164062 182.894531 149.746094 183.402344 C 149.328125 183.910156 148.9375 184.4375 148.574219 184.984375 C 148.210938 185.53125 147.871094 186.09375 147.5625 186.671875 C 147.253906 187.25 146.972656 187.84375 146.722656 188.449219 C 146.46875 189.058594 146.25 189.675781 146.058594 190.304688 C 145.867188 190.933594 145.707031 191.570312 145.578125 192.210938 C 145.453125 192.855469 145.355469 193.503906 145.292969 194.160156 C 145.226562 194.8125 145.195312 195.46875 145.195312 196.125 C 145.195312 196.78125 145.226562 197.4375 145.292969 198.089844 C 145.355469 198.746094 145.453125 199.394531 145.578125 200.039062 C 145.707031 200.679688 145.867188 201.316406 146.058594 201.945312 C 146.25 202.574219 146.46875 203.191406 146.722656 203.800781 C 146.972656 204.40625 147.253906 205 147.5625 205.578125 C 147.871094 206.15625 148.210938 206.71875 148.574219 207.265625 C 148.9375 207.8125 149.328125 208.339844 149.746094 208.847656 C 150.164062 209.355469 150.605469 209.839844 151.070312 210.304688 C 151.53125 210.769531 152.019531 211.210938 152.527344 211.628906 C 153.035156 212.042969 153.5625 212.433594 154.105469 212.800781 C 154.652344 213.164062 155.214844 213.5 155.796875 213.8125 C 156.375 214.121094 156.96875 214.402344 157.574219 214.652344 C 158.179688 214.902344 158.800781 215.125 159.425781 215.316406 C 160.054688 215.507812 160.691406 215.664062 161.335938 215.792969 C 161.980469 215.921875 162.628906 216.019531 163.285156 216.082031 C 163.9375 216.148438 164.59375 216.179688 165.25 216.179688 C 165.90625 216.179688 166.5625 216.148438 167.214844 216.082031 C 167.867188 216.019531 168.515625 215.921875 169.160156 215.792969 C 169.804688 215.664062 170.441406 215.507812 171.070312 215.316406 C 171.699219 215.125 172.316406 214.902344 172.921875 214.652344 C 173.53125 214.402344 174.125 214.121094 174.703125 213.8125 C 175.28125 213.5 175.84375 213.164062 176.390625 212.800781 C 176.9375 212.433594 177.464844 212.042969 177.972656 211.628906 C 178.480469 211.210938 178.964844 210.769531 179.429688 210.304688 C 179.894531 209.839844 180.335938 209.355469 180.75 208.847656 C 181.167969 208.339844 181.558594 207.8125 181.921875 207.265625 C 182.289062 206.71875 182.625 206.15625 182.933594 205.578125 C 183.246094 205 183.523438 204.40625 183.777344 203.800781 C 184.027344 203.191406 184.25 202.574219 184.441406 201.945312 C 184.628906 201.316406 184.789062 200.679688 184.917969 200.039062 C 185.046875 199.394531 185.140625 198.746094 185.207031 198.089844 C 185.269531 197.4375 185.304688 196.78125 185.304688 196.125 C 185.300781 195.46875 185.269531 194.8125 185.203125 194.160156 C 185.140625 193.507812 185.042969 192.859375 184.914062 192.214844 C 184.785156 191.570312 184.625 190.933594 184.433594 190.304688 C 184.242188 189.679688 184.023438 189.058594 183.769531 188.453125 C 183.519531 187.847656 183.238281 187.253906 182.929688 186.675781 C 182.617188 186.097656 182.28125 185.535156 181.917969 184.988281 C 181.550781 184.441406 181.160156 183.914062 180.746094 183.410156 C 180.328125 182.902344 179.886719 182.414062 179.421875 181.949219 C 178.957031 181.488281 178.472656 181.046875 177.964844 180.628906 C 177.457031 180.210938 176.929688 179.820312 176.386719 179.457031 C 175.839844 179.09375 175.277344 178.753906 174.699219 178.445312 C 174.121094 178.136719 173.527344 177.855469 172.921875 177.601562 C 172.3125 177.351562 171.695312 177.128906 171.066406 176.9375 C 170.441406 176.746094 169.804688 176.589844 169.160156 176.460938 C 168.515625 176.332031 167.867188 176.234375 167.214844 176.167969 C 166.558594 176.105469 165.90625 176.070312 165.25 176.070312 Z M 165.25 202.808594 C 164.808594 202.808594 164.375 202.765625 163.945312 202.679688 C 163.515625 202.59375 163.097656 202.46875 162.691406 202.300781 C 162.285156 202.132812 161.898438 201.925781 161.535156 201.683594 C 161.171875 201.4375 160.832031 201.164062 160.523438 200.851562 C 160.210938 200.542969 159.933594 200.203125 159.691406 199.839844 C 159.445312 199.472656 159.242188 199.089844 159.074219 198.683594 C 158.90625 198.277344 158.777344 197.859375 158.691406 197.429688 C 158.605469 197 158.5625 196.5625 158.5625 196.125 C 158.5625 195.6875 158.605469 195.25 158.691406 194.820312 C 158.777344 194.390625 158.90625 193.972656 159.074219 193.566406 C 159.242188 193.160156 159.445312 192.777344 159.691406 192.410156 C 159.933594 192.046875 160.210938 191.707031 160.523438 191.398438 C 160.832031 191.085938 161.171875 190.8125 161.535156 190.566406 C 161.898438 190.324219 162.285156 190.117188 162.691406 189.949219 C 163.097656 189.78125 163.515625 189.652344 163.945312 189.570312 C 164.375 189.484375 164.808594 189.441406 165.25 189.441406 C 165.6875 189.441406 166.121094 189.484375 166.554688 189.570312 C 166.984375 189.652344 167.402344 189.78125 167.808594 189.949219 C 168.210938 190.117188 168.597656 190.324219 168.960938 190.566406 C 169.328125 190.8125 169.664062 191.085938 169.976562 191.398438 C 170.285156 191.707031 170.5625 192.046875 170.808594 192.410156 C 171.050781 192.777344 171.257812 193.160156 171.425781 193.566406 C 171.59375 193.972656 171.71875 194.390625 171.804688 194.820312 C 171.890625 195.25 171.933594 195.6875 171.933594 196.125 C 171.933594 196.5625 171.890625 197 171.804688 197.429688 C 171.71875 197.859375 171.589844 198.277344 171.421875 198.683594 C 171.253906 199.085938 171.050781 199.472656 170.804688 199.835938 C 170.5625 200.203125 170.285156 200.539062 169.972656 200.851562 C 169.664062 201.160156 169.324219 201.4375 168.960938 201.679688 C 168.597656 201.925781 168.210938 202.132812 167.804688 202.300781 C 167.402344 202.46875 166.984375 202.59375 166.550781 202.679688 C 166.121094 202.765625 165.6875 202.808594 165.25 202.808594 Z M 165.25 202.808594 " fill-opacity="1" fill-rule="nonzero"/><path fill="#0c5424" d="M 332.367188 189.441406 L 238.78125 189.441406 C 238.34375 189.441406 237.90625 189.484375 237.476562 189.570312 C 237.046875 189.652344 236.628906 189.78125 236.222656 189.949219 C 235.816406 190.117188 235.433594 190.324219 235.066406 190.566406 C 234.703125 190.8125 234.363281 191.085938 234.054688 191.398438 C 233.746094 191.707031 233.46875 192.046875 233.222656 192.410156 C 232.980469 192.777344 232.773438 193.160156 232.605469 193.566406 C 232.4375 193.972656 232.3125 194.390625 232.226562 194.820312 C 232.140625 195.25 232.097656 195.6875 232.097656 196.125 C 232.097656 196.5625 232.140625 197 232.226562 197.429688 C 232.3125 197.859375 232.4375 198.277344 232.605469 198.683594 C 232.773438 199.089844 232.980469 199.472656 233.222656 199.839844 C 233.46875 200.203125 233.746094 200.542969 234.054688 200.851562 C 234.363281 201.164062 234.703125 201.4375 235.066406 201.683594 C 235.433594 201.925781 235.816406 202.132812 236.222656 202.300781 C 236.628906 202.46875 237.046875 202.59375 237.476562 202.679688 C 237.90625 202.765625 238.34375 202.808594 238.78125 202.808594 L 332.367188 202.808594 C 332.808594 202.808594 333.242188 202.765625 333.671875 202.679688 C 334.101562 202.59375 334.519531 202.46875 334.925781 202.300781 C 335.332031 202.132812 335.71875 201.925781 336.082031 201.683594 C 336.449219 201.4375 336.785156 201.164062 337.09375 200.851562 C 337.40625 200.542969 337.683594 200.203125 337.925781 199.839844 C 338.171875 199.472656 338.375 199.089844 338.542969 198.683594 C 338.710938 198.277344 338.839844 197.859375 338.925781 197.429688 C 339.011719 197 339.054688 196.5625 339.054688 196.125 C 339.054688 195.6875 339.011719 195.25 338.925781 194.820312 C 338.839844 194.390625 338.710938 193.972656 338.542969 193.566406 C 338.375 193.160156 338.171875 192.777344 337.925781 192.410156 C 337.683594 192.046875 337.40625 191.707031 337.09375 191.398438 C 336.785156 191.085938 336.449219 190.8125 336.082031 190.566406 C 335.71875 190.324219 335.332031 190.117188 334.925781 189.949219 C 334.519531 189.78125 334.101562 189.652344 333.671875 189.570312 C 333.242188 189.484375 332.808594 189.441406 332.367188 189.441406 Z M 332.367188 189.441406 " fill-opacity="1" fill-rule="nonzero"/><path fill="#0c5424" d="M 105.085938 283.027344 C 104.429688 283.027344 103.773438 283.058594 103.121094 283.125 C 102.464844 283.1875 101.816406 283.285156 101.171875 283.414062 C 100.53125 283.539062 99.894531 283.699219 99.265625 283.890625 C 98.636719 284.082031 98.019531 284.300781 97.410156 284.554688 C 96.804688 284.804688 96.210938 285.085938 95.632812 285.394531 C 95.054688 285.703125 94.492188 286.042969 93.945312 286.40625 C 93.398438 286.773438 92.871094 287.164062 92.363281 287.578125 C 91.855469 287.996094 91.371094 288.4375 90.90625 288.902344 C 90.441406 289.367188 90 289.851562 89.582031 290.359375 C 89.167969 290.867188 88.777344 291.394531 88.410156 291.941406 C 88.046875 292.484375 87.710938 293.046875 87.398438 293.628906 C 87.089844 294.207031 86.808594 294.800781 86.558594 295.40625 C 86.308594 296.015625 86.085938 296.632812 85.894531 297.261719 C 85.703125 297.886719 85.546875 298.523438 85.417969 299.167969 C 85.289062 299.8125 85.191406 300.460938 85.128906 301.117188 C 85.0625 301.769531 85.03125 302.425781 85.03125 303.082031 C 85.03125 303.738281 85.0625 304.394531 85.128906 305.046875 C 85.191406 305.699219 85.289062 306.351562 85.417969 306.992188 C 85.546875 307.636719 85.703125 308.273438 85.894531 308.902344 C 86.085938 309.53125 86.308594 310.148438 86.558594 310.757812 C 86.808594 311.363281 87.089844 311.957031 87.398438 312.535156 C 87.710938 313.113281 88.046875 313.675781 88.410156 314.222656 C 88.777344 314.769531 89.167969 315.296875 89.582031 315.804688 C 90 316.3125 90.441406 316.796875 90.90625 317.261719 C 91.371094 317.726562 91.855469 318.167969 92.363281 318.582031 C 92.871094 319 93.398438 319.390625 93.945312 319.757812 C 94.492188 320.121094 95.054688 320.457031 95.632812 320.769531 C 96.210938 321.078125 96.804688 321.359375 97.410156 321.609375 C 98.019531 321.859375 98.636719 322.082031 99.265625 322.273438 C 99.894531 322.464844 100.53125 322.621094 101.171875 322.75 C 101.816406 322.878906 102.464844 322.976562 103.121094 323.039062 C 103.773438 323.105469 104.429688 323.136719 105.085938 323.136719 C 105.742188 323.136719 106.398438 323.105469 107.050781 323.039062 C 107.707031 322.976562 108.355469 322.878906 109 322.75 C 109.640625 322.621094 110.277344 322.464844 110.90625 322.273438 C 111.535156 322.082031 112.152344 321.859375 112.761719 321.609375 C 113.367188 321.359375 113.960938 321.078125 114.539062 320.769531 C 115.117188 320.457031 115.679688 320.121094 116.226562 319.757812 C 116.773438 319.390625 117.300781 319 117.808594 318.582031 C 118.316406 318.167969 118.800781 317.726562 119.265625 317.261719 C 119.730469 316.796875 120.171875 316.3125 120.589844 315.804688 C 121.003906 315.296875 121.394531 314.769531 121.761719 314.222656 C 122.125 313.675781 122.460938 313.113281 122.773438 312.535156 C 123.082031 311.957031 123.363281 311.363281 123.613281 310.757812 C 123.863281 310.148438 124.085938 309.53125 124.277344 308.902344 C 124.46875 308.273438 124.625 307.636719 124.753906 306.992188 C 124.882812 306.351562 124.980469 305.699219 125.042969 305.046875 C 125.109375 304.394531 125.140625 303.738281 125.140625 303.082031 C 125.140625 302.425781 125.105469 301.769531 125.042969 301.117188 C 124.976562 300.464844 124.878906 299.816406 124.75 299.171875 C 124.621094 298.527344 124.460938 297.890625 124.273438 297.261719 C 124.082031 296.632812 123.859375 296.015625 123.609375 295.410156 C 123.355469 294.804688 123.074219 294.210938 122.765625 293.632812 C 122.457031 293.054688 122.117188 292.492188 121.753906 291.945312 C 121.390625 291.398438 120.996094 290.871094 120.582031 290.363281 C 120.164062 289.859375 119.722656 289.371094 119.261719 288.90625 C 118.796875 288.441406 118.308594 288.003906 117.800781 287.585938 C 117.292969 287.167969 116.769531 286.777344 116.222656 286.414062 C 115.675781 286.046875 115.113281 285.710938 114.535156 285.402344 C 113.957031 285.09375 113.363281 284.8125 112.757812 284.558594 C 112.152344 284.308594 111.53125 284.085938 110.90625 283.894531 C 110.277344 283.703125 109.640625 283.542969 108.996094 283.417969 C 108.351562 283.289062 107.703125 283.191406 107.050781 283.125 C 106.398438 283.0625 105.742188 283.027344 105.085938 283.027344 Z M 105.085938 309.765625 C 104.648438 309.765625 104.210938 309.722656 103.78125 309.636719 C 103.351562 309.550781 102.933594 309.425781 102.527344 309.257812 C 102.121094 309.089844 101.738281 308.882812 101.371094 308.640625 C 101.007812 308.394531 100.667969 308.117188 100.359375 307.808594 C 100.046875 307.496094 99.773438 307.160156 99.527344 306.796875 C 99.285156 306.429688 99.078125 306.046875 98.910156 305.640625 C 98.742188 305.234375 98.613281 304.816406 98.53125 304.386719 C 98.445312 303.957031 98.402344 303.519531 98.402344 303.082031 C 98.402344 302.640625 98.445312 302.207031 98.53125 301.777344 C 98.613281 301.347656 98.742188 300.929688 98.910156 300.523438 C 99.078125 300.117188 99.285156 299.734375 99.527344 299.367188 C 99.773438 299.003906 100.046875 298.664062 100.359375 298.355469 C 100.667969 298.042969 101.007812 297.765625 101.371094 297.523438 C 101.738281 297.28125 102.121094 297.074219 102.527344 296.90625 C 102.933594 296.738281 103.351562 296.609375 103.78125 296.523438 C 104.210938 296.441406 104.648438 296.398438 105.085938 296.398438 C 105.523438 296.398438 105.960938 296.441406 106.390625 296.523438 C 106.820312 296.609375 107.238281 296.738281 107.644531 296.90625 C 108.050781 297.074219 108.433594 297.28125 108.800781 297.523438 C 109.164062 297.765625 109.503906 298.042969 109.8125 298.355469 C 110.125 298.664062 110.398438 299.003906 110.644531 299.367188 C 110.886719 299.734375 111.09375 300.117188 111.261719 300.523438 C 111.429688 300.929688 111.554688 301.347656 111.640625 301.777344 C 111.726562 302.207031 111.769531 302.640625 111.769531 303.082031 C 111.769531 303.519531 111.726562 303.953125 111.640625 304.386719 C 111.554688 304.816406 111.429688 305.234375 111.261719 305.636719 C 111.09375 306.042969 110.886719 306.429688 110.640625 306.792969 C 110.398438 307.160156 110.121094 307.496094 109.8125 307.804688 C 109.5 308.117188 109.164062 308.394531 108.796875 308.636719 C 108.433594 308.882812 108.046875 309.085938 107.644531 309.253906 C 107.238281 309.421875 106.820312 309.550781 106.390625 309.636719 C 105.960938 309.722656 105.523438 309.765625 105.085938 309.765625 Z M 105.085938 309.765625 " fill-opacity="1" fill-rule="nonzero"/><path fill="#0c5424" d="M 165.25 283.027344 C 164.59375 283.027344 163.9375 283.058594 163.285156 283.125 C 162.628906 283.1875 161.980469 283.285156 161.335938 283.414062 C 160.691406 283.539062 160.054688 283.699219 159.425781 283.890625 C 158.800781 284.082031 158.179688 284.300781 157.574219 284.554688 C 156.96875 284.804688 156.375 285.085938 155.796875 285.394531 C 155.214844 285.703125 154.652344 286.042969 154.105469 286.40625 C 153.5625 286.773438 153.035156 287.164062 152.527344 287.578125 C 152.019531 287.996094 151.53125 288.4375 151.070312 288.902344 C 150.605469 289.367188 150.164062 289.851562 149.746094 290.359375 C 149.328125 290.867188 148.9375 291.394531 148.574219 291.941406 C 148.210938 292.484375 147.871094 293.046875 147.5625 293.628906 C 147.253906 294.207031 146.972656 294.800781 146.722656 295.40625 C 146.46875 296.015625 146.25 296.632812 146.058594 297.261719 C 145.867188 297.886719 145.707031 298.523438 145.578125 299.167969 C 145.453125 299.8125 145.355469 300.460938 145.292969 301.117188 C 145.226562 301.769531 145.195312 302.425781 145.195312 303.082031 C 145.195312 303.738281 145.226562 304.394531 145.292969 305.046875 C 145.355469 305.699219 145.453125 306.351562 145.578125 306.992188 C 145.707031 307.636719 145.867188 308.273438 146.058594 308.902344 C 146.25 309.53125 146.46875 310.148438 146.722656 310.757812 C 146.972656 311.363281 147.253906 311.957031 147.5625 312.535156 C 147.871094 313.113281 148.210938 313.675781 148.574219 314.222656 C 148.9375 314.769531 149.328125 315.296875 149.746094 315.804688 C 150.164062 316.3125 150.605469 316.796875 151.070312 317.261719 C 151.53125 317.726562 152.019531 318.167969 152.527344 318.582031 C 153.035156 319 153.5625 319.390625 154.105469 319.757812 C 154.652344 320.121094 155.214844 320.457031 155.796875 320.769531 C 156.375 321.078125 156.96875 321.359375 157.574219 321.609375 C 158.179688 321.859375 158.800781 322.082031 159.425781 322.273438 C 160.054688 322.464844 160.691406 322.621094 161.335938 322.75 C 161.980469 322.878906 162.628906 322.976562 163.285156 323.039062 C 163.9375 323.105469 164.59375 323.136719 165.25 323.136719 C 165.90625 323.136719 166.5625 323.105469 167.214844 323.039062 C 167.867188 322.976562 168.515625 322.878906 169.160156 322.75 C 169.804688 322.621094 170.441406 322.464844 171.070312 322.273438 C 171.699219 322.082031 172.316406 321.859375 172.921875 321.609375 C 173.53125 321.359375 174.125 321.078125 174.703125 320.769531 C 175.28125 320.457031 175.84375 320.121094 176.390625 319.757812 C 176.9375 319.390625 177.464844 319 177.972656 318.582031 C 178.480469 318.167969 178.964844 317.726562 179.429688 317.261719 C 179.894531 316.796875 180.335938 316.3125 180.75 315.804688 C 181.167969 315.296875 181.558594 314.769531 181.921875 314.222656 C 182.289062 313.675781 182.625 313.113281 182.933594 312.535156 C 183.246094 311.957031 183.523438 311.363281 183.777344 310.757812 C 184.027344 310.148438 184.25 309.53125 184.441406 308.902344 C 184.628906 308.273438 184.789062 307.636719 184.917969 306.992188 C 185.046875 306.351562 185.140625 305.699219 185.207031 305.046875 C 185.269531 304.394531 185.304688 303.738281 185.304688 303.082031 C 185.300781 302.425781 185.269531 301.769531 185.203125 301.117188 C 185.140625 300.464844 185.042969 299.816406 184.914062 299.171875 C 184.785156 298.527344 184.625 297.890625 184.433594 297.261719 C 184.242188 296.632812 184.023438 296.015625 183.769531 295.410156 C 183.519531 294.804688 183.238281 294.210938 182.929688 293.632812 C 182.617188 293.054688 182.28125 292.492188 181.917969 291.945312 C 181.550781 291.398438 181.160156 290.871094 180.746094 290.363281 C 180.328125 289.859375 179.886719 289.371094 179.421875 288.90625 C 178.957031 288.441406 178.472656 288.003906 177.964844 287.585938 C 177.457031 287.167969 176.929688 286.777344 176.386719 286.414062 C 175.839844 286.046875 175.277344 285.710938 174.699219 285.402344 C 174.121094 285.09375 173.527344 284.8125 172.921875 284.558594 C 172.3125 284.308594 171.695312 284.085938 171.066406 283.894531 C 170.441406 283.703125 169.804688 283.542969 169.160156 283.417969 C 168.515625 283.289062 167.867188 283.191406 167.214844 283.125 C 166.558594 283.0625 165.90625 283.027344 165.25 283.027344 Z M 165.25 309.765625 C 164.808594 309.765625 164.375 309.722656 163.945312 309.636719 C 163.515625 309.550781 163.097656 309.425781 162.691406 309.257812 C 162.285156 309.089844 161.898438 308.882812 161.535156 308.640625 C 161.171875 308.394531 160.832031 308.117188 160.523438 307.808594 C 160.210938 307.496094 159.933594 307.160156 159.691406 306.796875 C 159.445312 306.429688 159.242188 306.046875 159.074219 305.640625 C 158.90625 305.234375 158.777344 304.816406 158.691406 304.386719 C 158.605469 303.957031 158.5625 303.519531 158.5625 303.082031 C 158.5625 302.640625 158.605469 302.207031 158.691406 301.777344 C 158.777344 301.347656 158.90625 300.929688 159.074219 300.523438 C 159.242188 300.117188 159.445312 299.734375 159.691406 299.367188 C 159.933594 299.003906 160.210938 298.664062 160.523438 298.355469 C 160.832031 298.042969 161.171875 297.765625 161.535156 297.523438 C 161.898438 297.28125 162.285156 297.074219 162.691406 296.90625 C 163.097656 296.738281 163.515625 296.609375 163.945312 296.523438 C 164.375 296.441406 164.808594 296.398438 165.25 296.398438 C 165.6875 296.398438 166.121094 296.441406 166.554688 296.523438 C 166.984375 296.609375 167.402344 296.738281 167.808594 296.90625 C 168.210938 297.074219 168.597656 297.28125 168.960938 297.523438 C 169.328125 297.765625 169.664062 298.042969 169.976562 298.355469 C 170.285156 298.664062 170.5625 299.003906 170.808594 299.367188 C 171.050781 299.734375 171.257812 300.117188 171.425781 300.523438 C 171.59375 300.929688 171.71875 301.347656 171.804688 301.777344 C 171.890625 302.207031 171.933594 302.640625 171.933594 303.082031 C 171.933594 303.519531 171.890625 303.953125 171.804688 304.386719 C 171.71875 304.816406 171.589844 305.234375 171.421875 305.636719 C 171.253906 306.042969 171.050781 306.429688 170.804688 306.792969 C 170.5625 307.160156 170.285156 307.496094 169.972656 307.804688 C 169.664062 308.117188 169.324219 308.394531 168.960938 308.636719 C 168.597656 308.882812 168.210938 309.085938 167.804688 309.253906 C 167.402344 309.425781 166.984375 309.550781 166.550781 309.636719 C 166.121094 309.722656 165.6875 309.765625 165.25 309.765625 Z M 165.25 309.765625 " fill-opacity="1" fill-rule="nonzero"/><path fill="#0c5424" d="M 332.367188 296.398438 L 238.78125 296.398438 C 238.34375 296.398438 237.90625 296.441406 237.476562 296.523438 C 237.046875 296.609375 236.628906 296.738281 236.222656 296.90625 C 235.816406 297.074219 235.433594 297.28125 235.066406 297.523438 C 234.703125 297.765625 234.363281 298.042969 234.054688 298.355469 C 233.746094 298.664062 233.46875 299.003906 233.222656 299.367188 C 232.980469 299.734375 232.773438 300.117188 232.605469 300.523438 C 232.4375 300.929688 232.3125 301.347656 232.226562 301.777344 C 232.140625 302.207031 232.097656 302.640625 232.097656 303.082031 C 232.097656 303.519531 232.140625 303.957031 232.226562 304.386719 C 232.3125 304.816406 232.4375 305.234375 232.605469 305.640625 C 232.773438 306.046875 232.980469 306.429688 233.222656 306.796875 C 233.46875 307.160156 233.746094 307.496094 234.054688 307.808594 C 234.363281 308.117188 234.703125 308.394531 235.066406 308.640625 C 235.433594 308.882812 235.816406 309.089844 236.222656 309.257812 C 236.628906 309.425781 237.046875 309.550781 237.476562 309.636719 C 237.90625 309.722656 238.34375 309.765625 238.78125 309.765625 L 332.367188 309.765625 C 332.808594 309.765625 333.242188 309.722656 333.671875 309.636719 C 334.101562 309.550781 334.519531 309.425781 334.925781 309.257812 C 335.332031 309.089844 335.71875 308.882812 336.082031 308.640625 C 336.449219 308.394531 336.785156 308.117188 337.09375 307.808594 C 337.40625 307.496094 337.683594 307.160156 337.925781 306.796875 C 338.171875 306.429688 338.375 306.046875 338.542969 305.640625 C 338.710938 305.234375 338.839844 304.816406 338.925781 304.386719 C 339.011719 303.957031 339.054688 303.519531 339.054688 303.082031 C 339.054688 302.640625 339.011719 302.207031 338.925781 301.777344 C 338.839844 301.347656 338.710938 300.929688 338.542969 300.523438 C 338.375 300.117188 338.171875 299.734375 337.925781 299.367188 C 337.683594 299.003906 337.40625 298.664062 337.09375 298.355469 C 336.785156 298.042969 336.449219 297.765625 336.082031 297.523438 C 335.71875 297.28125 335.332031 297.074219 334.925781 296.90625 C 334.519531 296.738281 334.101562 296.609375 333.671875 296.523438 C 333.242188 296.441406 332.808594 296.398438 332.367188 296.398438 Z M 332.367188 296.398438 " fill-opacity="1" fill-rule="nonzero"/></svg>