<svg xmlns="http://www.w3.org/2000/svg" xmlns:xlink="http://www.w3.org/1999/xlink" width="565" zoomAndPan="magnify" viewBox="0 0 423.75 423.749988" height="565" preserveAspectRatio="xMidYMid meet" version="1.0"><defs><clipPath id="b81579b0cd"><path d="M 58.78125 30.601562 L 344 30.601562 L 344 381.597656 L 58.78125 381.597656 Z M 58.78125 30.601562 " clip-rule="nonzero"/></clipPath><clipPath id="59d0e2c109"><path d="M 212 79 L 409.78125 79 L 409.78125 278 L 212 278 Z M 212 79 " clip-rule="nonzero"/></clipPath></defs><g clip-path="url(#b81579b0cd)"><path fill="#0c5424" d="M 338.484375 198.75 C 338.125 198.75 337.765625 198.785156 337.414062 198.855469 C 337.0625 198.925781 336.71875 199.03125 336.386719 199.167969 C 336.050781 199.304688 335.738281 199.476562 335.4375 199.675781 C 335.136719 199.875 334.859375 200.101562 334.605469 200.355469 C 334.351562 200.613281 334.125 200.890625 333.921875 201.1875 C 333.722656 201.488281 333.554688 201.804688 333.417969 202.136719 C 333.28125 202.46875 333.175781 202.8125 333.105469 203.164062 C 333.035156 203.519531 333 203.875 333 204.234375 L 333 354.179688 C 333 354.714844 332.972656 355.253906 332.917969 355.789062 C 332.867188 356.324219 332.785156 356.859375 332.679688 357.386719 C 332.574219 357.914062 332.445312 358.4375 332.289062 358.953125 C 332.128906 359.46875 331.949219 359.972656 331.742188 360.472656 C 331.535156 360.96875 331.304688 361.457031 331.050781 361.929688 C 330.796875 362.40625 330.519531 362.867188 330.222656 363.3125 C 329.921875 363.761719 329.601562 364.195312 329.261719 364.609375 C 328.917969 365.027344 328.554688 365.425781 328.175781 365.804688 C 327.792969 366.1875 327.394531 366.550781 326.980469 366.890625 C 326.5625 367.234375 326.132812 367.554688 325.683594 367.851562 C 325.234375 368.152344 324.773438 368.429688 324.300781 368.683594 C 323.824219 368.9375 323.339844 369.167969 322.839844 369.375 C 322.34375 369.582031 321.835938 369.761719 321.320312 369.917969 C 320.804688 370.074219 320.285156 370.207031 319.753906 370.3125 C 319.226562 370.417969 318.695312 370.496094 318.160156 370.550781 C 317.621094 370.601562 317.085938 370.628906 316.546875 370.632812 L 86.203125 370.632812 C 85.664062 370.628906 85.128906 370.601562 84.589844 370.550781 C 84.054688 370.496094 83.523438 370.417969 82.996094 370.3125 C 82.464844 370.207031 81.945312 370.074219 81.429688 369.917969 C 80.914062 369.761719 80.40625 369.578125 79.910156 369.375 C 79.410156 369.167969 78.925781 368.9375 78.449219 368.683594 C 77.976562 368.429688 77.515625 368.152344 77.066406 367.851562 C 76.617188 367.554688 76.1875 367.234375 75.769531 366.890625 C 75.355469 366.550781 74.957031 366.1875 74.574219 365.804688 C 74.195312 365.425781 73.832031 365.027344 73.488281 364.609375 C 73.148438 364.195312 72.828125 363.761719 72.527344 363.3125 C 72.230469 362.867188 71.953125 362.40625 71.699219 361.929688 C 71.445312 361.457031 71.214844 360.96875 71.007812 360.472656 C 70.800781 359.972656 70.621094 359.46875 70.460938 358.953125 C 70.304688 358.4375 70.175781 357.914062 70.070312 357.386719 C 69.964844 356.859375 69.882812 356.324219 69.832031 355.789062 C 69.777344 355.253906 69.75 354.714844 69.75 354.179688 L 69.75 58.023438 C 69.75 57.484375 69.777344 56.945312 69.832031 56.410156 C 69.882812 55.875 69.964844 55.339844 70.070312 54.8125 C 70.175781 54.285156 70.304688 53.761719 70.460938 53.246094 C 70.621094 52.730469 70.800781 52.226562 71.007812 51.726562 C 71.214844 51.230469 71.445312 50.742188 71.699219 50.269531 C 71.953125 49.792969 72.230469 49.332031 72.527344 48.886719 C 72.828125 48.4375 73.148438 48.003906 73.488281 47.589844 C 73.832031 47.171875 74.191406 46.773438 74.574219 46.394531 C 74.957031 46.011719 75.355469 45.648438 75.769531 45.308594 C 76.1875 44.964844 76.617188 44.644531 77.066406 44.347656 C 77.515625 44.046875 77.976562 43.769531 78.449219 43.515625 C 78.925781 43.261719 79.410156 43.03125 79.910156 42.824219 C 80.40625 42.621094 80.914062 42.4375 81.429688 42.28125 C 81.945312 42.125 82.464844 41.992188 82.996094 41.886719 C 83.523438 41.78125 84.054688 41.703125 84.589844 41.648438 C 85.128906 41.597656 85.664062 41.570312 86.203125 41.570312 L 316.546875 41.570312 C 317.085938 41.570312 317.621094 41.597656 318.160156 41.648438 C 318.695312 41.703125 319.226562 41.78125 319.753906 41.886719 C 320.285156 41.992188 320.804688 42.125 321.320312 42.28125 C 321.835938 42.4375 322.34375 42.621094 322.839844 42.824219 C 323.339844 43.03125 323.824219 43.261719 324.300781 43.515625 C 324.773438 43.769531 325.234375 44.046875 325.683594 44.347656 C 326.132812 44.644531 326.5625 44.964844 326.980469 45.308594 C 327.394531 45.648438 327.792969 46.011719 328.175781 46.394531 C 328.558594 46.773438 328.917969 47.171875 329.261719 47.589844 C 329.601562 48.003906 329.921875 48.4375 330.222656 48.886719 C 330.519531 49.332031 330.796875 49.792969 331.050781 50.269531 C 331.304688 50.742188 331.535156 51.230469 331.742188 51.726562 C 331.949219 52.226562 332.128906 52.730469 332.289062 53.246094 C 332.445312 53.761719 332.574219 54.285156 332.679688 54.8125 C 332.785156 55.339844 332.867188 55.875 332.917969 56.410156 C 332.972656 56.945312 333 57.484375 333 58.023438 L 333 98.277344 C 333 98.636719 333.035156 98.992188 333.105469 99.347656 C 333.175781 99.699219 333.28125 100.042969 333.417969 100.375 C 333.554688 100.707031 333.722656 101.023438 333.925781 101.324219 C 334.125 101.621094 334.351562 101.898438 334.605469 102.152344 C 334.859375 102.410156 335.136719 102.636719 335.4375 102.835938 C 335.738281 103.035156 336.054688 103.203125 336.386719 103.34375 C 336.71875 103.480469 337.0625 103.585938 337.414062 103.65625 C 337.765625 103.726562 338.125 103.761719 338.484375 103.761719 C 338.84375 103.761719 339.199219 103.726562 339.554688 103.65625 C 339.90625 103.585938 340.25 103.480469 340.582031 103.34375 C 340.914062 103.203125 341.230469 103.035156 341.53125 102.835938 C 341.832031 102.636719 342.109375 102.410156 342.363281 102.152344 C 342.617188 101.898438 342.84375 101.621094 343.042969 101.324219 C 343.246094 101.023438 343.414062 100.707031 343.550781 100.375 C 343.6875 100.042969 343.792969 99.699219 343.863281 99.347656 C 343.933594 98.992188 343.96875 98.636719 343.96875 98.277344 L 343.96875 58.023438 C 343.96875 57.125 343.921875 56.226562 343.832031 55.335938 C 343.746094 54.441406 343.613281 53.554688 343.4375 52.675781 C 343.261719 51.792969 343.042969 50.925781 342.78125 50.066406 C 342.519531 49.207031 342.21875 48.363281 341.871094 47.53125 C 341.527344 46.703125 341.144531 45.894531 340.722656 45.101562 C 340.296875 44.308594 339.835938 43.539062 339.335938 42.792969 C 338.839844 42.046875 338.304688 41.328125 337.734375 40.632812 C 337.164062 39.941406 336.5625 39.277344 335.925781 38.640625 C 335.292969 38.007812 334.628906 37.402344 333.933594 36.832031 C 333.242188 36.265625 332.519531 35.730469 331.773438 35.230469 C 331.027344 34.730469 330.257812 34.269531 329.46875 33.847656 C 328.675781 33.421875 327.863281 33.039062 327.035156 32.695312 C 326.207031 32.351562 325.363281 32.050781 324.503906 31.789062 C 323.644531 31.527344 322.773438 31.308594 321.894531 31.132812 C 321.015625 30.957031 320.128906 30.824219 319.234375 30.734375 C 318.339844 30.644531 317.445312 30.601562 316.546875 30.601562 L 86.203125 30.601562 C 85.304688 30.601562 84.410156 30.644531 83.515625 30.734375 C 82.621094 30.824219 81.734375 30.957031 80.855469 31.132812 C 79.976562 31.308594 79.105469 31.527344 78.246094 31.789062 C 77.386719 32.050781 76.542969 32.351562 75.714844 32.695312 C 74.886719 33.039062 74.074219 33.421875 73.28125 33.847656 C 72.492188 34.269531 71.722656 34.730469 70.976562 35.230469 C 70.230469 35.730469 69.507812 36.265625 68.816406 36.832031 C 68.121094 37.402344 67.457031 38.007812 66.824219 38.640625 C 66.1875 39.277344 65.585938 39.941406 65.015625 40.632812 C 64.445312 41.328125 63.910156 42.046875 63.414062 42.792969 C 62.914062 43.539062 62.453125 44.308594 62.027344 45.101562 C 61.605469 45.894531 61.222656 46.703125 60.878906 47.53125 C 60.53125 48.363281 60.230469 49.207031 59.96875 50.066406 C 59.707031 50.925781 59.488281 51.792969 59.3125 52.675781 C 59.136719 53.554688 59.003906 54.441406 58.917969 55.335938 C 58.828125 56.226562 58.78125 57.125 58.78125 58.023438 L 58.78125 354.179688 C 58.78125 355.074219 58.828125 355.972656 58.917969 356.863281 C 59.003906 357.757812 59.136719 358.644531 59.3125 359.523438 C 59.488281 360.40625 59.707031 361.273438 59.96875 362.132812 C 60.230469 362.992188 60.53125 363.835938 60.878906 364.667969 C 61.222656 365.496094 61.605469 366.304688 62.027344 367.097656 C 62.453125 367.890625 62.914062 368.660156 63.414062 369.40625 C 63.910156 370.152344 64.445312 370.871094 65.015625 371.566406 C 65.585938 372.257812 66.1875 372.921875 66.824219 373.558594 C 67.457031 374.195312 68.121094 374.796875 68.816406 375.367188 C 69.507812 375.933594 70.230469 376.46875 70.976562 376.96875 C 71.722656 377.46875 72.492188 377.929688 73.28125 378.351562 C 74.074219 378.777344 74.886719 379.160156 75.714844 379.503906 C 76.542969 379.847656 77.386719 380.152344 78.246094 380.410156 C 79.105469 380.671875 79.976562 380.890625 80.855469 381.066406 C 81.734375 381.242188 82.621094 381.375 83.515625 381.464844 C 84.410156 381.554688 85.304688 381.597656 86.203125 381.601562 L 316.546875 381.601562 C 317.445312 381.597656 318.339844 381.554688 319.234375 381.464844 C 320.128906 381.375 321.015625 381.242188 321.894531 381.066406 C 322.773438 380.890625 323.644531 380.671875 324.503906 380.410156 C 325.363281 380.152344 326.207031 379.847656 327.035156 379.503906 C 327.863281 379.160156 328.675781 378.777344 329.46875 378.351562 C 330.257812 377.929688 331.027344 377.46875 331.773438 376.96875 C 332.519531 376.46875 333.242188 375.933594 333.933594 375.367188 C 334.628906 374.796875 335.292969 374.195312 335.925781 373.558594 C 336.5625 372.921875 337.164062 372.257812 337.734375 371.566406 C 338.304688 370.871094 338.839844 370.152344 339.335938 369.40625 C 339.835938 368.660156 340.296875 367.890625 340.722656 367.097656 C 341.144531 366.304688 341.527344 365.496094 341.871094 364.667969 C 342.21875 363.835938 342.519531 362.992188 342.78125 362.132812 C 343.042969 361.273438 343.261719 360.40625 343.4375 359.523438 C 343.613281 358.644531 343.746094 357.757812 343.832031 356.863281 C 343.921875 355.972656 343.96875 355.074219 343.96875 354.179688 L 343.96875 204.234375 C 343.96875 203.875 343.933594 203.519531 343.863281 203.164062 C 343.792969 202.8125 343.6875 202.46875 343.550781 202.136719 C 343.414062 201.804688 343.246094 201.488281 343.042969 201.1875 C 342.84375 200.890625 342.617188 200.613281 342.363281 200.355469 C 342.109375 200.101562 341.832031 199.875 341.53125 199.675781 C 341.230469 199.476562 340.917969 199.304688 340.582031 199.167969 C 340.25 199.03125 339.90625 198.925781 339.554688 198.855469 C 339.203125 198.785156 338.84375 198.75 338.484375 198.75 Z M 338.484375 198.75 " fill-opacity="1" fill-rule="nonzero"/></g><path fill="#0c5424" d="M 316.546875 125.699219 C 316.90625 125.699219 317.265625 125.664062 317.617188 125.59375 C 317.96875 125.523438 318.3125 125.417969 318.644531 125.28125 C 318.980469 125.144531 319.292969 124.972656 319.59375 124.773438 C 319.894531 124.574219 320.171875 124.347656 320.425781 124.09375 C 320.679688 123.835938 320.90625 123.558594 321.109375 123.261719 C 321.308594 122.960938 321.476562 122.644531 321.613281 122.3125 C 321.75 121.980469 321.855469 121.636719 321.925781 121.285156 C 321.996094 120.929688 322.03125 120.574219 322.03125 120.214844 L 322.03125 68.992188 C 322.03125 68.628906 321.996094 68.273438 321.925781 67.921875 C 321.855469 67.566406 321.75 67.222656 321.613281 66.890625 C 321.476562 66.558594 321.308594 66.242188 321.105469 65.941406 C 320.90625 65.644531 320.679688 65.367188 320.425781 65.113281 C 320.171875 64.855469 319.894531 64.628906 319.59375 64.429688 C 319.292969 64.230469 318.980469 64.0625 318.644531 63.921875 C 318.3125 63.785156 317.96875 63.679688 317.617188 63.609375 C 317.261719 63.539062 316.90625 63.503906 316.546875 63.507812 L 86.203125 63.507812 C 85.84375 63.503906 85.484375 63.539062 85.132812 63.609375 C 84.78125 63.679688 84.4375 63.785156 84.105469 63.921875 C 83.769531 64.0625 83.457031 64.230469 83.15625 64.429688 C 82.855469 64.628906 82.578125 64.855469 82.324219 65.113281 C 82.070312 65.367188 81.84375 65.644531 81.644531 65.941406 C 81.441406 66.242188 81.273438 66.558594 81.136719 66.890625 C 81 67.222656 80.894531 67.566406 80.824219 67.921875 C 80.753906 68.273438 80.71875 68.628906 80.71875 68.992188 L 80.71875 321.273438 C 80.71875 321.632812 80.753906 321.988281 80.824219 322.339844 C 80.894531 322.695312 81 323.039062 81.136719 323.371094 C 81.273438 323.703125 81.441406 324.019531 81.644531 324.320312 C 81.84375 324.617188 82.070312 324.894531 82.324219 325.148438 C 82.578125 325.40625 82.855469 325.632812 83.15625 325.832031 C 83.457031 326.03125 83.769531 326.199219 84.105469 326.339844 C 84.4375 326.476562 84.78125 326.582031 85.132812 326.652344 C 85.484375 326.722656 85.84375 326.757812 86.203125 326.757812 L 316.546875 326.757812 C 316.90625 326.757812 317.265625 326.722656 317.617188 326.652344 C 317.96875 326.582031 318.3125 326.476562 318.644531 326.339844 C 318.980469 326.199219 319.292969 326.03125 319.59375 325.832031 C 319.894531 325.632812 320.171875 325.40625 320.425781 325.148438 C 320.679688 324.894531 320.90625 324.617188 321.105469 324.320312 C 321.308594 324.019531 321.476562 323.703125 321.613281 323.371094 C 321.75 323.039062 321.855469 322.695312 321.925781 322.339844 C 321.996094 321.988281 322.03125 321.632812 322.03125 321.273438 L 322.03125 226.121094 C 322.03125 225.757812 321.996094 225.402344 321.925781 225.050781 C 321.855469 224.695312 321.75 224.355469 321.613281 224.019531 C 321.476562 223.6875 321.308594 223.371094 321.105469 223.074219 C 320.90625 222.773438 320.679688 222.496094 320.425781 222.242188 C 320.171875 221.988281 319.894531 221.757812 319.59375 221.558594 C 319.292969 221.359375 318.976562 221.191406 318.644531 221.054688 C 318.3125 220.914062 317.96875 220.8125 317.617188 220.742188 C 317.261719 220.671875 316.90625 220.636719 316.546875 220.636719 C 316.1875 220.636719 315.832031 220.671875 315.476562 220.742188 C 315.125 220.8125 314.78125 220.914062 314.449219 221.054688 C 314.117188 221.191406 313.800781 221.359375 313.5 221.558594 C 313.199219 221.757812 312.921875 221.988281 312.667969 222.242188 C 312.414062 222.496094 312.1875 222.773438 311.988281 223.074219 C 311.785156 223.371094 311.617188 223.6875 311.480469 224.019531 C 311.34375 224.355469 311.238281 224.695312 311.167969 225.050781 C 311.097656 225.402344 311.0625 225.757812 311.0625 226.121094 L 311.0625 315.789062 L 91.6875 315.789062 L 91.6875 74.476562 L 311.0625 74.476562 L 311.0625 120.214844 C 311.0625 120.574219 311.097656 120.929688 311.167969 121.285156 C 311.238281 121.636719 311.34375 121.980469 311.480469 122.3125 C 311.617188 122.644531 311.785156 122.960938 311.984375 123.261719 C 312.1875 123.558594 312.414062 123.835938 312.667969 124.09375 C 312.921875 124.347656 313.199219 124.574219 313.5 124.773438 C 313.800781 124.972656 314.113281 125.144531 314.449219 125.28125 C 314.78125 125.417969 315.125 125.523438 315.476562 125.59375 C 315.828125 125.664062 316.1875 125.699219 316.546875 125.699219 Z M 316.546875 125.699219 " fill-opacity="1" fill-rule="nonzero"/><path fill="#0c5424" d="M 212.34375 58.023438 C 212.703125 58.023438 213.058594 57.988281 213.414062 57.917969 C 213.765625 57.847656 214.109375 57.742188 214.441406 57.605469 C 214.773438 57.464844 215.089844 57.296875 215.390625 57.097656 C 215.691406 56.898438 215.96875 56.667969 216.222656 56.414062 C 216.476562 56.160156 216.703125 55.882812 216.902344 55.585938 C 217.105469 55.285156 217.273438 54.96875 217.410156 54.636719 C 217.546875 54.304688 217.652344 53.960938 217.722656 53.605469 C 217.792969 53.253906 217.828125 52.898438 217.828125 52.539062 C 217.828125 52.175781 217.792969 51.820312 217.722656 51.46875 C 217.652344 51.113281 217.546875 50.769531 217.410156 50.4375 C 217.273438 50.105469 217.105469 49.789062 216.902344 49.488281 C 216.703125 49.191406 216.476562 48.914062 216.222656 48.660156 C 215.96875 48.40625 215.691406 48.175781 215.390625 47.976562 C 215.089844 47.777344 214.773438 47.609375 214.441406 47.46875 C 214.109375 47.332031 213.765625 47.226562 213.414062 47.15625 C 213.058594 47.089844 212.703125 47.054688 212.34375 47.054688 L 190.40625 47.054688 C 190.046875 47.054688 189.691406 47.089844 189.335938 47.15625 C 188.984375 47.226562 188.640625 47.332031 188.308594 47.46875 C 187.976562 47.609375 187.660156 47.777344 187.359375 47.976562 C 187.058594 48.175781 186.78125 48.40625 186.527344 48.660156 C 186.273438 48.914062 186.046875 49.191406 185.847656 49.488281 C 185.644531 49.789062 185.476562 50.105469 185.339844 50.4375 C 185.203125 50.769531 185.097656 51.113281 185.027344 51.46875 C 184.957031 51.820312 184.921875 52.175781 184.921875 52.539062 C 184.921875 52.898438 184.957031 53.253906 185.027344 53.605469 C 185.097656 53.960938 185.203125 54.304688 185.339844 54.636719 C 185.476562 54.96875 185.644531 55.285156 185.847656 55.585938 C 186.046875 55.882812 186.273438 56.160156 186.527344 56.414062 C 186.78125 56.667969 187.058594 56.898438 187.359375 57.097656 C 187.660156 57.296875 187.976562 57.464844 188.308594 57.605469 C 188.640625 57.742188 188.984375 57.847656 189.335938 57.917969 C 189.691406 57.988281 190.046875 58.023438 190.40625 58.023438 Z M 212.34375 58.023438 " fill-opacity="1" fill-rule="nonzero"/><path fill="#0c5424" d="M 184.921875 348.695312 C 184.921875 349.230469 184.949219 349.769531 185 350.304688 C 185.054688 350.84375 185.132812 351.375 185.238281 351.902344 C 185.34375 352.433594 185.472656 352.953125 185.628906 353.46875 C 185.785156 353.984375 185.96875 354.492188 186.175781 354.988281 C 186.378906 355.488281 186.609375 355.972656 186.863281 356.449219 C 187.117188 356.925781 187.394531 357.386719 187.695312 357.835938 C 187.992188 358.28125 188.316406 358.714844 188.65625 359.132812 C 189 359.546875 189.359375 359.945312 189.742188 360.328125 C 190.121094 360.707031 190.519531 361.070312 190.9375 361.410156 C 191.355469 361.753906 191.785156 362.074219 192.234375 362.375 C 192.683594 362.671875 193.144531 362.949219 193.617188 363.203125 C 194.09375 363.457031 194.582031 363.6875 195.078125 363.894531 C 195.578125 364.101562 196.082031 364.28125 196.597656 364.4375 C 197.113281 364.59375 197.636719 364.726562 198.164062 364.832031 C 198.695312 364.933594 199.226562 365.015625 199.761719 365.066406 C 200.296875 365.121094 200.835938 365.148438 201.375 365.148438 C 201.914062 365.148438 202.453125 365.121094 202.988281 365.066406 C 203.523438 365.015625 204.054688 364.933594 204.585938 364.832031 C 205.113281 364.726562 205.636719 364.59375 206.152344 364.4375 C 206.667969 364.28125 207.171875 364.101562 207.671875 363.894531 C 208.167969 363.6875 208.65625 363.457031 209.132812 363.203125 C 209.605469 362.949219 210.066406 362.671875 210.515625 362.375 C 210.964844 362.074219 211.394531 361.753906 211.8125 361.410156 C 212.230469 361.070312 212.628906 360.707031 213.007812 360.328125 C 213.390625 359.945312 213.75 359.546875 214.09375 359.132812 C 214.433594 358.714844 214.757812 358.28125 215.054688 357.835938 C 215.355469 357.386719 215.632812 356.925781 215.886719 356.449219 C 216.140625 355.972656 216.371094 355.488281 216.574219 354.988281 C 216.78125 354.492188 216.964844 353.984375 217.121094 353.46875 C 217.277344 352.953125 217.40625 352.433594 217.511719 351.902344 C 217.617188 351.375 217.695312 350.84375 217.75 350.304688 C 217.800781 349.769531 217.828125 349.230469 217.828125 348.695312 C 217.828125 348.15625 217.800781 347.617188 217.75 347.082031 C 217.695312 346.542969 217.617188 346.011719 217.511719 345.484375 C 217.40625 344.953125 217.277344 344.433594 217.121094 343.917969 C 216.964844 343.402344 216.78125 342.894531 216.574219 342.398438 C 216.371094 341.898438 216.140625 341.414062 215.886719 340.9375 C 215.632812 340.460938 215.355469 340 215.054688 339.550781 C 214.757812 339.105469 214.433594 338.671875 214.09375 338.253906 C 213.75 337.839844 213.390625 337.441406 213.007812 337.058594 C 212.628906 336.679688 212.230469 336.316406 211.8125 335.976562 C 211.394531 335.632812 210.964844 335.3125 210.515625 335.011719 C 210.066406 334.714844 209.605469 334.4375 209.132812 334.183594 C 208.65625 333.929688 208.167969 333.699219 207.671875 333.492188 C 207.171875 333.285156 206.667969 333.105469 206.152344 332.949219 C 205.636719 332.792969 205.113281 332.660156 204.585938 332.554688 C 204.054688 332.453125 203.523438 332.371094 202.988281 332.320312 C 202.453125 332.265625 201.914062 332.242188 201.375 332.242188 C 200.835938 332.242188 200.300781 332.269531 199.761719 332.320312 C 199.226562 332.375 198.695312 332.453125 198.167969 332.558594 C 197.636719 332.664062 197.117188 332.796875 196.601562 332.953125 C 196.085938 333.109375 195.578125 333.292969 195.082031 333.496094 C 194.582031 333.703125 194.097656 333.933594 193.621094 334.1875 C 193.148438 334.441406 192.6875 334.71875 192.238281 335.019531 C 191.789062 335.316406 191.359375 335.636719 190.941406 335.980469 C 190.527344 336.320312 190.128906 336.683594 189.746094 337.066406 C 189.363281 337.445312 189.003906 337.84375 188.660156 338.261719 C 188.320312 338.675781 188 339.109375 187.699219 339.558594 C 187.402344 340.003906 187.125 340.464844 186.871094 340.941406 C 186.617188 341.414062 186.386719 341.902344 186.179688 342.398438 C 185.972656 342.898438 185.792969 343.402344 185.632812 343.917969 C 185.476562 344.433594 185.347656 344.957031 185.242188 345.484375 C 185.136719 346.011719 185.054688 346.546875 185.003906 347.082031 C 184.949219 347.617188 184.921875 348.15625 184.921875 348.695312 Z M 206.859375 348.695312 C 206.859375 349.054688 206.824219 349.410156 206.753906 349.761719 C 206.683594 350.117188 206.578125 350.460938 206.441406 350.792969 C 206.304688 351.125 206.136719 351.441406 205.933594 351.742188 C 205.734375 352.039062 205.507812 352.316406 205.253906 352.570312 C 205 352.824219 204.722656 353.054688 204.421875 353.253906 C 204.121094 353.453125 203.804688 353.621094 203.472656 353.761719 C 203.140625 353.898438 202.796875 354.003906 202.445312 354.074219 C 202.089844 354.144531 201.734375 354.179688 201.375 354.179688 C 201.015625 354.179688 200.660156 354.144531 200.304688 354.074219 C 199.953125 354.003906 199.609375 353.898438 199.277344 353.761719 C 198.945312 353.621094 198.628906 353.453125 198.328125 353.253906 C 198.027344 353.054688 197.75 352.824219 197.496094 352.570312 C 197.242188 352.316406 197.015625 352.039062 196.816406 351.742188 C 196.613281 351.441406 196.445312 351.125 196.308594 350.792969 C 196.171875 350.460938 196.066406 350.117188 195.996094 349.761719 C 195.925781 349.410156 195.890625 349.054688 195.890625 348.695312 C 195.890625 348.332031 195.925781 347.976562 195.996094 347.625 C 196.066406 347.269531 196.171875 346.925781 196.308594 346.59375 C 196.445312 346.261719 196.613281 345.945312 196.816406 345.644531 C 197.015625 345.347656 197.242188 345.070312 197.496094 344.816406 C 197.75 344.5625 198.027344 344.332031 198.328125 344.132812 C 198.628906 343.933594 198.945312 343.765625 199.277344 343.625 C 199.609375 343.488281 199.953125 343.382812 200.304688 343.3125 C 200.660156 343.242188 201.015625 343.210938 201.375 343.210938 C 201.734375 343.210938 202.089844 343.246094 202.445312 343.316406 C 202.796875 343.386719 203.140625 343.488281 203.472656 343.628906 C 203.804688 343.765625 204.121094 343.933594 204.421875 344.136719 C 204.71875 344.335938 204.996094 344.5625 205.25 344.816406 C 205.507812 345.070312 205.734375 345.347656 205.933594 345.648438 C 206.132812 345.945312 206.300781 346.261719 206.441406 346.59375 C 206.578125 346.929688 206.683594 347.269531 206.753906 347.625 C 206.824219 347.976562 206.859375 348.332031 206.859375 348.695312 Z M 206.859375 348.695312 " fill-opacity="1" fill-rule="nonzero"/><g clip-path="url(#59d0e2c109)"><path fill="#0c5424" d="M 403.628906 86.109375 C 403.144531 85.621094 402.632812 85.160156 402.101562 84.726562 C 401.570312 84.289062 401.019531 83.882812 400.445312 83.5 C 399.875 83.121094 399.285156 82.765625 398.679688 82.445312 C 398.074219 82.121094 397.453125 81.828125 396.816406 81.566406 C 396.179688 81.300781 395.535156 81.070312 394.875 80.871094 C 394.21875 80.671875 393.550781 80.507812 392.878906 80.371094 C 392.203125 80.238281 391.523438 80.136719 390.839844 80.070312 C 390.15625 80.003906 389.472656 79.96875 388.785156 79.96875 C 388.097656 79.96875 387.410156 80.003906 386.726562 80.070312 C 386.042969 80.136719 385.363281 80.238281 384.6875 80.371094 C 384.015625 80.507812 383.347656 80.671875 382.691406 80.871094 C 382.03125 81.070312 381.386719 81.300781 380.75 81.566406 C 380.117188 81.828125 379.496094 82.121094 378.886719 82.445312 C 378.28125 82.765625 377.691406 83.121094 377.121094 83.5 C 376.550781 83.882812 375.996094 84.289062 375.464844 84.726562 C 374.933594 85.160156 374.425781 85.621094 373.9375 86.109375 L 219.433594 240.613281 C 218.652344 241.394531 218.152344 242.328125 217.933594 243.414062 L 212.449219 270.835938 C 212.371094 271.234375 212.335938 271.636719 212.347656 272.039062 C 212.355469 272.445312 212.410156 272.847656 212.507812 273.238281 C 212.605469 273.632812 212.746094 274.011719 212.929688 274.375 C 213.109375 274.738281 213.328125 275.074219 213.585938 275.386719 C 213.84375 275.703125 214.132812 275.984375 214.453125 276.234375 C 214.773438 276.484375 215.117188 276.695312 215.480469 276.867188 C 215.847656 277.042969 216.230469 277.171875 216.625 277.261719 C 217.023438 277.351562 217.421875 277.394531 217.828125 277.398438 C 218.191406 277.394531 218.550781 277.359375 218.90625 277.289062 L 246.328125 271.804688 C 247.410156 271.585938 248.34375 271.085938 249.128906 270.304688 L 403.628906 115.800781 C 404.117188 115.3125 404.578125 114.804688 405.015625 114.273438 C 405.449219 113.742188 405.859375 113.191406 406.242188 112.617188 C 406.625 112.046875 406.976562 111.457031 407.300781 110.851562 C 407.625 110.246094 407.917969 109.625 408.183594 108.988281 C 408.445312 108.355469 408.675781 107.707031 408.875 107.050781 C 409.078125 106.390625 409.242188 105.726562 409.378906 105.050781 C 409.511719 104.375 409.613281 103.695312 409.679688 103.011719 C 409.746094 102.328125 409.78125 101.640625 409.78125 100.953125 C 409.78125 100.265625 409.746094 99.582031 409.679688 98.894531 C 409.613281 98.210938 409.511719 97.53125 409.378906 96.859375 C 409.242188 96.183594 409.078125 95.515625 408.875 94.859375 C 408.675781 94.199219 408.445312 93.554688 408.183594 92.917969 C 407.917969 92.285156 407.625 91.664062 407.300781 91.054688 C 406.976562 90.449219 406.625 89.859375 406.242188 89.289062 C 405.859375 88.71875 405.449219 88.164062 405.015625 87.632812 C 404.578125 87.101562 404.117188 86.59375 403.628906 86.109375 Z M 395.875 108.046875 L 242.546875 261.378906 L 224.820312 264.921875 L 228.367188 247.195312 L 381.691406 93.863281 C 382.15625 93.398438 382.664062 92.980469 383.210938 92.617188 C 383.757812 92.25 384.335938 91.941406 384.945312 91.6875 C 385.554688 91.4375 386.179688 91.246094 386.828125 91.117188 C 387.472656 90.988281 388.125 90.925781 388.785156 90.925781 C 389.441406 90.925781 390.09375 90.988281 390.738281 91.117188 C 391.386719 91.246094 392.011719 91.4375 392.621094 91.6875 C 393.230469 91.941406 393.808594 92.25 394.355469 92.617188 C 394.902344 92.980469 395.410156 93.398438 395.875 93.863281 C 396.339844 94.328125 396.757812 94.835938 397.121094 95.382812 C 397.488281 95.929688 397.796875 96.507812 398.046875 97.117188 C 398.300781 97.722656 398.492188 98.351562 398.621094 98.996094 C 398.746094 99.644531 398.8125 100.296875 398.8125 100.953125 C 398.8125 101.613281 398.746094 102.265625 398.621094 102.910156 C 398.492188 103.554688 398.300781 104.183594 398.046875 104.792969 C 397.796875 105.398438 397.488281 105.976562 397.121094 106.523438 C 396.757812 107.074219 396.339844 107.578125 395.875 108.046875 Z M 395.875 108.046875 " fill-opacity="1" fill-rule="nonzero"/></g></svg>